<svg width="1280" height="640" viewBox="0 0 1280 640" fill="none" xmlns="http://www.w3.org/2000/svg">
<rect width="1280" height="640" fill="url(#paint0_linear_341_112)"/>
<g filter="url(#filter0_g_341_112)">
<path d="M973.604 373.149L961.519 382.034L975.721 401.352L986.881 380.131L973.604 373.149ZM1044.28 270.982C1048.13 263.65 1045.31 254.58 1037.98 250.724C1030.65 246.869 1021.58 249.687 1017.72 257.019L1031 264.001L1044.28 270.982ZM702.324 322.075L699.684 336.841L707.202 338.186L712.712 332.897L702.324 322.075ZM573.141 283.734C564.986 282.276 557.193 287.704 555.734 295.859C554.276 304.014 559.704 311.807 567.859 313.266L570.5 298.5L573.141 283.734ZM931.485 315.859L919.399 324.744L961.519 382.034L973.604 373.149L985.69 364.264L943.57 306.974L931.485 315.859ZM973.604 373.149L986.881 380.131L1044.28 270.982L1031 264.001L1017.72 257.019L960.328 366.168L973.604 373.149ZM743.345 282.701L732.957 271.88L691.937 311.254L702.324 322.075L712.712 332.897L753.732 293.523L743.345 282.701ZM702.324 322.075L704.965 307.31L573.141 283.734L570.5 298.5L567.859 313.266L699.684 336.841L702.324 322.075Z" fill="white"/>
</g>
<g filter="url(#filter1_g_341_112)">
<path d="M860.797 236.514L845.02 239.176L832.843 233.118L819.457 198.867L834.039 174.096L848.984 166.503L870.523 167.94L886.528 196.677L860.797 236.514Z" fill="#2CC3FF"/>
<path d="M832.843 233.118L822.365 255.168L839.748 274.039L865.623 265.109L860.797 236.514L845.02 239.176L832.843 233.118Z" fill="#2CC3FF"/>
<path d="M832.843 233.118L822.365 255.168L839.748 274.039L865.623 265.109L860.797 236.514M832.843 233.118L845.02 239.176L860.797 236.514M832.843 233.118L819.457 198.867L834.039 174.096L848.984 166.503L870.523 167.94L886.528 196.677L860.797 236.514" stroke="white" stroke-width="15"/>
</g>
<g filter="url(#filter2_g_341_112)">
<path d="M792.616 421.435L789.564 538.576L747.657 545.647M862.004 426.967L866.97 525.514L921.881 526.39" stroke="white" stroke-width="30"/>
</g>
<g filter="url(#filter3_g_341_112)">
<path d="M807.266 424.117L814.195 408.081L848.207 414.318L845.697 432.5L882.723 429.555C882.723 429.555 907.883 392.35 891.435 388.027C874.986 383.704 807.885 370.687 786.256 365.717C764.628 360.746 776.804 423.889 776.804 423.889L807.266 424.117Z" fill="#FF0000"/>
<path d="M807.266 424.117L814.195 408.081L848.207 414.318L845.697 432.5L882.723 429.555C882.723 429.555 907.883 392.35 891.435 388.027C874.986 383.704 807.885 370.687 786.256 365.717C764.628 360.746 776.804 423.889 776.804 423.889L807.266 424.117Z" stroke="black" stroke-width="10"/>
</g>
<g filter="url(#filter4_g_341_112)">
<path d="M788.336 378.044L878.551 398.823L894.655 313.961L931.534 340.19L956.13 308.658L920.718 276.096L866.923 257.792L846.964 265.723L820.624 247.857L781.989 247.277L733.857 265.541L739.431 298.574L775.262 294.556L788.336 378.044Z" fill="url(#paint1_linear_341_112)"/>
<path d="M788.336 378.044L878.551 398.823L894.655 313.961L931.534 340.19L956.13 308.658L920.718 276.096L866.923 257.792L846.964 265.723L820.624 247.857L781.989 247.277L733.857 265.541L739.431 298.574L775.262 294.556L788.336 378.044Z" stroke="black" stroke-width="10"/>
</g>
<g filter="url(#filter5_g_341_112)">
<path d="M833.207 169.166L820.623 124.639M855.393 165.422L844.288 120.646M867.891 167.37L866.967 116.819M880.242 177.455L908.188 135.724M888.743 194.782L928.214 161.247" stroke="url(#paint2_linear_341_112)" stroke-width="15"/>
</g>
<g filter="url(#filter6_g_341_112)">
<path d="M830.916 183.661L827.579 199.943M853.608 185.916L851.18 204.581" stroke="black" stroke-width="15" stroke-linecap="round"/>
</g>
<g filter="url(#filter7_g_341_112)">
<path d="M834.803 226.702L836.902 227.628C844.82 231.12 854.019 229.953 860.815 224.595" stroke="black" stroke-width="15" stroke-linecap="round"/>
</g>
<mask id="path-10-outside-1_341_112" maskUnits="userSpaceOnUse" x="228" y="106" width="477" height="428" fill="black">
<rect fill="white" x="228" y="106" width="477" height="428"/>
<path d="M236.4 260L259.6 114H289.6L280.6 170H314.2L323.2 114H353.2L330 260H300L309.8 198H276.2L266.4 260H236.4ZM402.722 262C387.922 262 376.989 258 369.922 250C362.989 242 360.589 231.067 362.722 217.2L373.322 150H403.322L392.722 217C391.789 223.133 392.522 227.867 394.922 231.2C397.322 234.4 401.322 236 406.922 236C412.389 236 416.855 234.4 420.322 231.2C423.922 227.867 426.189 223.133 427.122 217L437.722 150H467.722L457.122 217.2C455.655 226.533 452.455 234.533 447.522 241.2C442.722 247.867 436.455 253 428.722 256.6C421.122 260.2 412.455 262 402.722 262ZM522.844 262C513.11 262 504.91 260.2 498.244 256.6C491.577 252.867 486.777 247.733 483.844 241.2C481.044 234.533 480.31 226.8 481.644 218L485.844 192C487.31 183.2 490.51 175.533 495.444 169C500.51 162.333 506.91 157.2 514.644 153.6C522.51 149.867 531.31 148 541.044 148C550.777 148 558.91 149.867 565.444 153.6C572.11 157.2 576.844 162.333 579.644 169C582.577 175.533 583.31 183.2 581.844 192L578.644 212H511.244L510.244 218C509.177 224.933 510.044 230.2 512.844 233.8C515.644 237.267 520.377 239 527.044 239C531.71 239 535.577 238.2 538.644 236.6C541.844 235 544.11 232.8 545.444 230H574.844C572.31 236.4 568.444 242 563.244 246.8C558.044 251.6 551.977 255.333 545.044 258C538.244 260.667 530.844 262 522.844 262ZM552.444 196.6L553.244 191.6C554.31 184.8 553.577 179.6 551.044 176C548.51 172.4 543.977 170.6 537.444 170.6C530.91 170.6 525.71 172.467 521.844 176.2C517.977 179.933 515.51 185.2 514.444 192L513.844 195L554.844 194.6L552.444 196.6ZM293 526C284.067 526 276.267 524.4 269.6 521.2C263.067 518 258 513.467 254.4 507.6C250.8 501.733 249 494.867 249 487H259C259 496.067 262.067 503.333 268.2 508.8C274.467 514.267 282.733 517 293 517C303 517 310.8 514.533 316.4 509.6C322.133 504.533 325 497.533 325 488.6C325 480.867 322.8 474.133 318.4 468.4C314 462.667 308 458.667 300.4 456.4L283.6 451.4C274 448.467 266.467 443.6 261 436.8C255.667 429.867 253 421.667 253 412.2C253 404.733 254.6 398.333 257.8 393C261.133 387.533 265.8 383.333 271.8 380.4C277.933 377.467 285.067 376 293.2 376C305.467 376 315.133 379.467 322.2 386.4C329.4 393.2 333 402.533 333 414.4H323C323 405.467 320.267 398.333 314.8 393C309.333 387.667 302.067 385 293 385C283.667 385 276.333 387.333 271 392C265.667 396.667 263 403.133 263 411.4C263 418.6 265.067 424.933 269.2 430.4C273.333 435.733 278.933 439.533 286 441.8L302.8 447C312.667 450.067 320.467 455.267 326.2 462.6C332.067 469.933 335 478.4 335 488C335 495.733 333.267 502.467 329.8 508.2C326.467 513.8 321.667 518.2 315.4 521.4C309.133 524.467 301.667 526 293 526ZM411.922 526C399.922 526 390.522 522.4 383.722 515.2C376.922 507.867 373.522 497.867 373.522 485.2V414H383.522V485.2C383.522 495.2 385.989 503 390.922 508.6C395.989 514.2 402.922 517 411.722 517C420.655 517 427.655 514.2 432.722 508.6C437.789 503 440.322 495.2 440.322 485.2V414H450.322V485.2C450.322 497.733 446.855 507.667 439.922 515C433.122 522.333 423.789 526 411.922 526ZM497.244 524V414H507.244V433H509.644L505.044 444.6C505.177 434.867 508.177 427 514.044 421C519.91 415 527.71 412 537.444 412C549.177 412 558.444 415.6 565.244 422.8C572.044 430 575.444 439.733 575.444 452V458H564.444V452C564.444 442.133 561.91 434.467 556.844 429C551.91 423.4 544.91 420.6 535.844 420.6C526.91 420.6 519.91 423.4 514.844 429C509.777 434.467 507.244 442.133 507.244 452V524H497.244ZM639.766 524V434.2H605.766V425.2H639.766V403C639.766 395.133 642.032 389 646.566 384.6C651.232 380.2 657.632 378 665.766 378H696.366V387H665.766C660.699 387 656.766 388.4 653.966 391.2C651.166 394 649.766 397.933 649.766 403V425.2H696.366V434.2H649.766V524H639.766Z"/>
</mask>
<path d="M236.4 260L259.6 114H289.6L280.6 170H314.2L323.2 114H353.2L330 260H300L309.8 198H276.2L266.4 260H236.4ZM402.722 262C387.922 262 376.989 258 369.922 250C362.989 242 360.589 231.067 362.722 217.2L373.322 150H403.322L392.722 217C391.789 223.133 392.522 227.867 394.922 231.2C397.322 234.4 401.322 236 406.922 236C412.389 236 416.855 234.4 420.322 231.2C423.922 227.867 426.189 223.133 427.122 217L437.722 150H467.722L457.122 217.2C455.655 226.533 452.455 234.533 447.522 241.2C442.722 247.867 436.455 253 428.722 256.6C421.122 260.2 412.455 262 402.722 262ZM522.844 262C513.11 262 504.91 260.2 498.244 256.6C491.577 252.867 486.777 247.733 483.844 241.2C481.044 234.533 480.31 226.8 481.644 218L485.844 192C487.31 183.2 490.51 175.533 495.444 169C500.51 162.333 506.91 157.2 514.644 153.6C522.51 149.867 531.31 148 541.044 148C550.777 148 558.91 149.867 565.444 153.6C572.11 157.2 576.844 162.333 579.644 169C582.577 175.533 583.31 183.2 581.844 192L578.644 212H511.244L510.244 218C509.177 224.933 510.044 230.2 512.844 233.8C515.644 237.267 520.377 239 527.044 239C531.71 239 535.577 238.2 538.644 236.6C541.844 235 544.11 232.8 545.444 230H574.844C572.31 236.4 568.444 242 563.244 246.8C558.044 251.6 551.977 255.333 545.044 258C538.244 260.667 530.844 262 522.844 262ZM552.444 196.6L553.244 191.6C554.31 184.8 553.577 179.6 551.044 176C548.51 172.4 543.977 170.6 537.444 170.6C530.91 170.6 525.71 172.467 521.844 176.2C517.977 179.933 515.51 185.2 514.444 192L513.844 195L554.844 194.6L552.444 196.6ZM293 526C284.067 526 276.267 524.4 269.6 521.2C263.067 518 258 513.467 254.4 507.6C250.8 501.733 249 494.867 249 487H259C259 496.067 262.067 503.333 268.2 508.8C274.467 514.267 282.733 517 293 517C303 517 310.8 514.533 316.4 509.6C322.133 504.533 325 497.533 325 488.6C325 480.867 322.8 474.133 318.4 468.4C314 462.667 308 458.667 300.4 456.4L283.6 451.4C274 448.467 266.467 443.6 261 436.8C255.667 429.867 253 421.667 253 412.2C253 404.733 254.6 398.333 257.8 393C261.133 387.533 265.8 383.333 271.8 380.4C277.933 377.467 285.067 376 293.2 376C305.467 376 315.133 379.467 322.2 386.4C329.4 393.2 333 402.533 333 414.4H323C323 405.467 320.267 398.333 314.8 393C309.333 387.667 302.067 385 293 385C283.667 385 276.333 387.333 271 392C265.667 396.667 263 403.133 263 411.4C263 418.6 265.067 424.933 269.2 430.4C273.333 435.733 278.933 439.533 286 441.8L302.8 447C312.667 450.067 320.467 455.267 326.2 462.6C332.067 469.933 335 478.4 335 488C335 495.733 333.267 502.467 329.8 508.2C326.467 513.8 321.667 518.2 315.4 521.4C309.133 524.467 301.667 526 293 526ZM411.922 526C399.922 526 390.522 522.4 383.722 515.2C376.922 507.867 373.522 497.867 373.522 485.2V414H383.522V485.2C383.522 495.2 385.989 503 390.922 508.6C395.989 514.2 402.922 517 411.722 517C420.655 517 427.655 514.2 432.722 508.6C437.789 503 440.322 495.2 440.322 485.2V414H450.322V485.2C450.322 497.733 446.855 507.667 439.922 515C433.122 522.333 423.789 526 411.922 526ZM497.244 524V414H507.244V433H509.644L505.044 444.6C505.177 434.867 508.177 427 514.044 421C519.91 415 527.71 412 537.444 412C549.177 412 558.444 415.6 565.244 422.8C572.044 430 575.444 439.733 575.444 452V458H564.444V452C564.444 442.133 561.91 434.467 556.844 429C551.91 423.4 544.91 420.6 535.844 420.6C526.91 420.6 519.91 423.4 514.844 429C509.777 434.467 507.244 442.133 507.244 452V524H497.244ZM639.766 524V434.2H605.766V425.2H639.766V403C639.766 395.133 642.032 389 646.566 384.6C651.232 380.2 657.632 378 665.766 378H696.366V387H665.766C660.699 387 656.766 388.4 653.966 391.2C651.166 394 649.766 397.933 649.766 403V425.2H696.366V434.2H649.766V524H639.766Z" fill="black"/>
<path d="M236.4 260L228.499 258.745C228.132 261.057 228.795 263.414 230.315 265.194C231.835 266.975 234.059 268 236.4 268V260ZM259.6 114V106C255.666 106 252.316 108.86 251.699 112.745L259.6 114ZM289.6 114L297.499 115.269C297.871 112.956 297.209 110.595 295.689 108.811C294.169 107.028 291.944 106 289.6 106V114ZM280.6 170L272.701 168.731C272.329 171.044 272.991 173.405 274.511 175.189C276.031 176.972 278.256 178 280.6 178V170ZM314.2 170V178C318.128 178 321.475 175.148 322.099 171.269L314.2 170ZM323.2 114V106C319.272 106 315.925 108.852 315.301 112.731L323.2 114ZM353.2 114L361.101 115.255C361.468 112.943 360.805 110.586 359.285 108.806C357.765 107.025 355.541 106 353.2 106V114ZM330 260V268C333.934 268 337.284 265.14 337.901 261.255L330 260ZM300 260L292.098 258.751C291.733 261.062 292.398 263.417 293.918 265.197C295.437 266.976 297.66 268 300 268V260ZM309.8 198L317.702 199.249C318.067 196.938 317.402 194.583 315.882 192.803C314.363 191.024 312.14 190 309.8 190V198ZM276.2 198V190C272.264 190 268.913 192.863 268.298 196.751L276.2 198ZM266.4 260V268C270.336 268 273.687 265.137 274.302 261.249L266.4 260ZM236.4 260L244.301 261.255L267.501 115.255L259.6 114L251.699 112.745L228.499 258.745L236.4 260ZM259.6 114V122H289.6V114V106H259.6V114ZM289.6 114L281.701 112.731L272.701 168.731L280.6 170L288.499 171.269L297.499 115.269L289.6 114ZM280.6 170V178H314.2V170V162H280.6V170ZM314.2 170L322.099 171.269L331.099 115.269L323.2 114L315.301 112.731L306.301 168.731L314.2 170ZM323.2 114V122H353.2V114V106H323.2V114ZM353.2 114L345.299 112.745L322.099 258.745L330 260L337.901 261.255L361.101 115.255L353.2 114ZM330 260V252H300V260V268H330V260ZM300 260L307.902 261.249L317.702 199.249L309.8 198L301.898 196.751L292.098 258.751L300 260ZM309.8 198V190H276.2V198V206H309.8V198ZM276.2 198L268.298 196.751L258.498 258.751L266.4 260L274.302 261.249L284.102 199.249L276.2 198ZM266.4 260V252H236.4V260V268H266.4V260ZM369.922 250L363.876 255.239C363.893 255.258 363.909 255.277 363.926 255.296L369.922 250ZM362.722 217.2L354.82 215.954C354.818 215.964 354.816 215.974 354.815 215.984L362.722 217.2ZM373.322 150V142C369.385 142 366.033 144.865 365.42 148.754L373.322 150ZM403.322 150L411.224 151.25C411.589 148.939 410.925 146.583 409.405 144.804C407.885 143.025 405.662 142 403.322 142V150ZM392.722 217L384.82 215.75C384.818 215.765 384.815 215.781 384.813 215.796L392.722 217ZM394.922 231.2L388.43 235.874C388.46 235.917 388.491 235.958 388.522 236L394.922 231.2ZM420.322 231.2L425.748 237.078L425.757 237.07L420.322 231.2ZM427.122 217L419.22 215.75C419.218 215.765 419.215 215.781 419.213 215.796L427.122 217ZM437.722 150V142C433.786 142 430.435 144.863 429.82 148.75L437.722 150ZM467.722 150L475.624 151.246C475.989 148.936 475.323 146.581 473.803 144.802C472.284 143.024 470.061 142 467.722 142V150ZM457.122 217.2L449.22 215.954L449.219 215.958L457.122 217.2ZM447.522 241.2L441.091 236.441C441.07 236.469 441.05 236.497 441.03 236.526L447.522 241.2ZM428.722 256.6L425.346 249.347C425.329 249.355 425.313 249.362 425.297 249.37L428.722 256.6ZM402.722 262V254C389.294 254 380.947 250.397 375.918 244.704L369.922 250L363.926 255.296C373.03 265.603 386.549 270 402.722 270V262ZM369.922 250L375.967 244.761C371.034 239.069 368.729 230.765 370.629 218.416L362.722 217.2L354.815 215.984C352.448 231.368 354.943 244.931 363.876 255.239L369.922 250ZM362.722 217.2L370.624 218.446L381.224 151.246L373.322 150L365.42 148.754L354.82 215.954L362.722 217.2ZM373.322 150V158H403.322V150V142H373.322V150ZM403.322 150L395.42 148.75L384.82 215.75L392.722 217L400.624 218.25L411.224 151.25L403.322 150ZM392.722 217L384.813 215.796C383.723 222.961 384.306 230.148 388.43 235.874L394.922 231.2L401.414 226.526C400.737 225.586 399.854 223.305 400.631 218.204L392.722 217ZM394.922 231.2L388.522 236C392.978 241.941 399.877 244 406.922 244V236V228C402.767 228 401.666 226.859 401.322 226.4L394.922 231.2ZM406.922 236V244C414.058 244 420.571 241.858 425.748 237.078L420.322 231.2L414.896 225.322C413.14 226.942 410.719 228 406.922 228V236ZM420.322 231.2L425.757 237.07C431.005 232.211 433.898 225.645 435.031 218.204L427.122 217L419.213 215.796C418.479 220.622 416.839 223.522 414.887 225.33L420.322 231.2ZM427.122 217L435.024 218.25L445.624 151.25L437.722 150L429.82 148.75L419.22 215.75L427.122 217ZM437.722 150V158H467.722V150V142H437.722V150ZM467.722 150L459.82 148.754L449.22 215.954L457.122 217.2L465.024 218.446L475.624 151.246L467.722 150ZM457.122 217.2L449.219 215.958C447.924 224.196 445.157 230.947 441.091 236.441L447.522 241.2L453.953 245.959C459.754 238.119 463.386 228.87 465.025 218.442L457.122 217.2ZM447.522 241.2L441.03 236.526C437.062 242.037 431.886 246.303 425.346 249.347L428.722 256.6L432.098 263.853C441.024 259.697 448.382 253.697 454.014 245.874L447.522 241.2ZM428.722 256.6L425.297 249.37C418.924 252.389 411.457 254 402.722 254V262V270C413.454 270 423.32 268.011 432.147 263.83L428.722 256.6ZM498.244 256.6L494.335 263.58C494.371 263.6 494.407 263.62 494.443 263.639L498.244 256.6ZM483.844 241.2L476.468 244.298C476.493 244.358 476.519 244.417 476.546 244.477L483.844 241.2ZM481.644 218L473.746 216.724C473.742 216.75 473.738 216.776 473.734 216.802L481.644 218ZM485.844 192L477.953 190.685C477.95 190.698 477.948 190.711 477.946 190.724L485.844 192ZM495.444 169L489.074 164.159C489.069 164.166 489.064 164.173 489.059 164.179L495.444 169ZM514.644 153.6L518.02 160.853C518.038 160.844 518.056 160.836 518.074 160.827L514.644 153.6ZM565.444 153.6L561.475 160.546C561.53 160.578 561.586 160.609 561.643 160.639L565.444 153.6ZM579.644 169L572.268 172.098C572.293 172.158 572.319 172.217 572.346 172.277L579.644 169ZM581.844 192L573.953 190.685C573.95 190.702 573.947 190.719 573.944 190.736L581.844 192ZM578.644 212V220C582.574 220 585.922 217.145 586.543 213.264L578.644 212ZM511.244 212V204C507.333 204 503.996 206.827 503.353 210.685L511.244 212ZM510.244 218L502.353 216.685C502.347 216.718 502.342 216.751 502.337 216.784L510.244 218ZM512.844 233.8L506.529 238.712C506.559 238.75 506.589 238.789 506.62 238.827L512.844 233.8ZM538.644 236.6L535.066 229.445C535.025 229.465 534.984 229.486 534.943 229.507L538.644 236.6ZM545.444 230V222C542.358 222 539.548 223.775 538.221 226.561L545.444 230ZM574.844 230L582.282 232.944C583.257 230.481 582.95 227.694 581.46 225.503C579.971 223.312 577.493 222 574.844 222V230ZM563.244 246.8L568.67 252.678L568.67 252.678L563.244 246.8ZM545.044 258L542.172 250.533C542.156 250.54 542.139 250.546 542.123 250.552L545.044 258ZM552.444 196.6L544.544 195.336C544.017 198.629 545.589 201.904 548.487 203.553C551.386 205.202 555.003 204.881 557.565 202.746L552.444 196.6ZM553.244 191.6L561.143 192.864C561.145 192.856 561.146 192.848 561.147 192.84L553.244 191.6ZM551.044 176L557.586 171.396L557.586 171.396L551.044 176ZM521.844 176.2L516.287 170.445L516.287 170.445L521.844 176.2ZM514.444 192L522.288 193.569C522.31 193.46 522.33 193.35 522.347 193.24L514.444 192ZM513.844 195L505.999 193.431C505.526 195.795 506.145 198.245 507.682 200.102C509.219 201.959 511.511 203.023 513.922 203L513.844 195ZM554.844 194.6L559.965 200.746C562.564 198.58 563.52 195.015 562.353 191.84C561.186 188.665 558.148 186.567 554.766 186.6L554.844 194.6ZM522.844 262V254C514.07 254 507.258 252.376 502.045 249.561L498.244 256.6L494.443 263.639C502.563 268.024 512.151 270 522.844 270V262ZM498.244 256.6L502.153 249.62C496.877 246.666 493.324 242.783 491.142 237.923L483.844 241.2L476.546 244.477C480.231 252.684 486.277 259.068 494.335 263.58L498.244 256.6ZM483.844 241.2L491.22 238.102C489.107 233.073 488.39 226.88 489.553 219.198L481.644 218L473.734 216.802C472.231 226.72 472.98 235.994 476.468 244.298L483.844 241.2ZM481.644 218L489.541 219.276L493.741 193.276L485.844 192L477.946 190.724L473.746 216.724L481.644 218ZM485.844 192L493.735 193.315C495.009 185.671 497.741 179.234 501.828 173.821L495.444 169L489.059 164.179C483.28 171.833 479.612 180.729 477.953 190.685L485.844 192ZM495.444 169L501.813 173.841C506.078 168.229 511.443 163.915 518.02 160.853L514.644 153.6L511.268 146.347C502.378 150.485 494.943 156.437 489.074 164.159L495.444 169ZM514.644 153.6L518.074 160.827C524.748 157.66 532.356 156 541.044 156V148V140C530.265 140 520.273 142.073 511.214 146.373L514.644 153.6ZM541.044 148V156C549.784 156 556.455 157.677 561.475 160.546L565.444 153.6L569.413 146.654C561.366 142.056 551.77 140 541.044 140V148ZM565.444 153.6L561.643 160.639C566.786 163.417 570.21 167.199 572.268 172.098L579.644 169L587.02 165.902C583.477 157.467 577.435 150.983 569.245 146.561L565.444 153.6ZM579.644 169L572.346 172.277C574.49 177.054 575.224 183.057 573.953 190.685L581.844 192L589.735 193.315C591.397 183.343 590.664 174.013 586.942 165.723L579.644 169ZM581.844 192L573.944 190.736L570.744 210.736L578.644 212L586.543 213.264L589.743 193.264L581.844 192ZM578.644 212V204H511.244V212V220H578.644V212ZM511.244 212L503.353 210.685L502.353 216.685L510.244 218L518.135 219.315L519.135 213.315L511.244 212ZM510.244 218L502.337 216.784C501.113 224.737 501.798 232.629 506.529 238.712L512.844 233.8L519.159 228.888C518.29 227.771 517.241 225.13 518.151 219.216L510.244 218ZM512.844 233.8L506.62 238.827C511.571 244.957 519.188 247 527.044 247V239V231C521.566 231 519.716 229.576 519.067 228.773L512.844 233.8ZM527.044 239V247C532.569 247 537.807 246.06 542.344 243.693L538.644 236.6L534.943 229.507C533.347 230.34 530.852 231 527.044 231V239ZM538.644 236.6L542.221 243.755C546.76 241.486 550.452 238.091 552.667 233.439L545.444 230L538.221 226.561C537.769 227.509 536.927 228.514 535.066 229.445L538.644 236.6ZM545.444 230V238H574.844V230V222H545.444V230ZM574.844 230L567.405 227.056C565.327 232.307 562.161 236.913 557.818 240.922L563.244 246.8L568.67 252.678C574.727 247.087 579.294 240.493 582.282 232.944L574.844 230ZM563.244 246.8L557.818 240.922C553.397 245.002 548.209 248.211 542.172 250.533L545.044 258L547.916 265.467C555.746 262.455 562.69 258.198 568.67 252.678L563.244 246.8ZM545.044 258L542.123 250.552C536.338 252.821 529.94 254 522.844 254V262V270C531.748 270 540.149 268.513 547.964 265.448L545.044 258ZM552.444 196.6L560.343 197.864L561.143 192.864L553.244 191.6L545.344 190.336L544.544 195.336L552.444 196.6ZM553.244 191.6L561.147 192.84C562.36 185.107 561.836 177.436 557.586 171.396L551.044 176L544.501 180.604C545.318 181.764 546.261 184.493 545.34 190.36L553.244 191.6ZM551.044 176L557.586 171.396C552.926 164.774 545.253 162.6 537.444 162.6V170.6V178.6C542.701 178.6 544.095 180.026 544.501 180.604L551.044 176ZM537.444 170.6V162.6C529.311 162.6 521.954 164.973 516.287 170.445L521.844 176.2L527.401 181.955C529.467 179.96 532.51 178.6 537.444 178.6V170.6ZM521.844 176.2L516.287 170.445C510.854 175.69 507.801 182.726 506.54 190.76L514.444 192L522.347 193.24C523.22 187.674 525.1 184.176 527.401 181.955L521.844 176.2ZM514.444 192L506.599 190.431L505.999 193.431L513.844 195L521.688 196.569L522.288 193.569L514.444 192ZM513.844 195L513.922 203L554.922 202.6L554.844 194.6L554.766 186.6L513.766 187L513.844 195ZM554.844 194.6L549.722 188.454L547.322 190.454L552.444 196.6L557.565 202.746L559.965 200.746L554.844 194.6ZM269.6 521.2L266.081 528.385C266.1 528.394 266.119 528.403 266.138 528.412L269.6 521.2ZM254.4 507.6L247.581 511.784L247.581 511.784L254.4 507.6ZM249 487V479C244.582 479 241 482.582 241 487H249ZM259 487H267C267 482.582 263.418 479 259 479V487ZM268.2 508.8L262.877 514.772C262.898 514.791 262.92 514.81 262.941 514.829L268.2 508.8ZM316.4 509.6L321.688 515.603L321.698 515.595L316.4 509.6ZM318.4 468.4L312.054 473.271L312.054 473.271L318.4 468.4ZM300.4 456.4L302.686 448.734L302.682 448.732L300.4 456.4ZM283.6 451.4L281.262 459.051C281.281 459.056 281.299 459.062 281.318 459.068L283.6 451.4ZM261 436.8L254.659 441.678C254.694 441.723 254.729 441.768 254.765 441.812L261 436.8ZM257.8 393L250.97 388.835C250.96 388.851 250.95 388.868 250.94 388.884L257.8 393ZM271.8 380.4L268.348 373.183C268.328 373.193 268.307 373.203 268.286 373.213L271.8 380.4ZM322.2 386.4L316.597 392.11C316.634 392.146 316.67 392.181 316.707 392.216L322.2 386.4ZM333 414.4V422.4C337.418 422.4 341 418.818 341 414.4H333ZM323 414.4H315C315 418.818 318.582 422.4 323 422.4V414.4ZM314.8 393L320.387 387.274L320.387 387.274L314.8 393ZM271 392L265.732 385.979L271 392ZM269.2 430.4L262.819 435.225C262.838 435.25 262.857 435.275 262.877 435.301L269.2 430.4ZM286 441.8L283.557 449.418C283.583 449.426 283.609 449.434 283.635 449.442L286 441.8ZM302.8 447L305.174 439.36L305.165 439.358L302.8 447ZM326.2 462.6L319.898 467.527C319.916 467.551 319.934 467.574 319.953 467.598L326.2 462.6ZM329.8 508.2L322.954 504.061C322.945 504.076 322.935 504.092 322.926 504.108L329.8 508.2ZM315.4 521.4L318.916 528.586C318.957 528.566 318.998 528.545 319.038 528.525L315.4 521.4ZM293 526V518C285.02 518 278.447 516.573 273.062 513.988L269.6 521.2L266.138 528.412C274.087 532.227 283.114 534 293 534V526ZM269.6 521.2L273.119 514.015C267.866 511.443 263.979 507.915 261.219 503.416L254.4 507.6L247.581 511.784C252.021 519.018 258.267 524.557 266.081 528.385L269.6 521.2ZM254.4 507.6L261.219 503.416C258.497 498.98 257 493.605 257 487H249H241C241 496.128 243.103 504.487 247.581 511.784L254.4 507.6ZM249 487V495H259V487V479H249V487ZM259 487H251C251 498.084 254.853 507.62 262.877 514.772L268.2 508.8L273.523 502.828C269.28 499.047 267 494.05 267 487H259ZM268.2 508.8L262.941 514.829C270.985 521.845 281.271 525 293 525V517V509C284.196 509 277.949 506.688 273.459 502.771L268.2 508.8ZM293 517V525C304.277 525 314.193 522.206 321.688 515.603L316.4 509.6L311.112 503.597C307.407 506.86 301.723 509 293 509V517ZM316.4 509.6L321.698 515.595C329.443 508.75 333 499.403 333 488.6H325H317C317 495.663 314.824 500.317 311.102 503.605L316.4 509.6ZM325 488.6H333C333 479.237 330.296 470.761 324.746 463.529L318.4 468.4L312.054 473.271C315.304 477.506 317 482.496 317 488.6H325ZM318.4 468.4L324.746 463.529C319.221 456.329 311.735 451.432 302.686 448.734L300.4 456.4L298.114 464.066C304.265 465.901 308.779 469.004 312.054 473.271L318.4 468.4ZM300.4 456.4L302.682 448.732L285.882 443.732L283.6 451.4L281.318 459.068L298.118 464.068L300.4 456.4ZM283.6 451.4L285.938 443.749C277.634 441.212 271.551 437.156 267.235 431.788L261 436.8L254.765 441.812C261.382 450.044 270.366 455.721 281.262 459.051L283.6 451.4ZM261 436.8L267.341 431.922C263.174 426.505 261 420.057 261 412.2H253H245C245 423.277 248.159 433.228 254.659 441.678L261 436.8ZM253 412.2H261C261 405.891 262.343 400.977 264.66 397.116L257.8 393L250.94 388.884C246.857 395.689 245 403.575 245 412.2H253ZM257.8 393L264.63 397.165C267.134 393.059 270.623 389.88 275.314 387.587L271.8 380.4L268.286 373.213C260.977 376.786 255.133 382.007 250.97 388.835L257.8 393ZM271.8 380.4L275.252 387.617C280.116 385.291 286.03 384 293.2 384V376V368C284.104 368 275.75 369.643 268.348 373.183L271.8 380.4ZM293.2 376V384C303.9 384 311.366 386.978 316.597 392.11L322.2 386.4L327.803 380.69C318.901 371.956 307.033 368 293.2 368V376ZM322.2 386.4L316.707 392.216C321.994 397.209 325 404.263 325 414.4H333H341C341 400.804 336.806 389.191 327.693 380.584L322.2 386.4ZM333 414.4V406.4H323V414.4V422.4H333V414.4ZM323 414.4H331C331 403.707 327.659 394.369 320.387 387.274L314.8 393L309.213 398.726C312.875 402.298 315 407.226 315 414.4H323ZM314.8 393L320.387 387.274C313.151 380.215 303.736 377 293 377V385V393C300.397 393 305.516 395.119 309.213 398.726L314.8 393ZM293 385V377C282.354 377 272.934 379.678 265.732 385.979L271 392L276.268 398.021C279.733 394.989 284.979 393 293 393V385ZM271 392L265.732 385.979C258.367 392.424 255 401.25 255 411.4H263H271C271 405.016 272.966 400.91 276.268 398.021L271 392ZM263 411.4H255C255 420.247 257.58 428.296 262.819 435.225L269.2 430.4L275.581 425.575C272.554 421.571 271 416.953 271 411.4H263ZM269.2 430.4L262.877 435.301C268.098 442.037 275.112 446.709 283.557 449.418L286 441.8L288.443 434.182C282.754 432.357 278.569 429.429 275.523 425.499L269.2 430.4ZM286 441.8L283.635 449.442L300.435 454.642L302.8 447L305.165 439.358L288.365 434.158L286 441.8ZM302.8 447L300.426 454.64C308.916 457.278 315.276 461.616 319.898 467.527L326.2 462.6L332.502 457.673C325.657 448.917 316.418 442.855 305.174 439.36L302.8 447ZM326.2 462.6L319.953 467.598C324.658 473.479 327 480.173 327 488H335H343C343 476.627 339.476 466.388 332.447 457.602L326.2 462.6ZM335 488H327C327 494.503 325.556 499.758 322.954 504.061L329.8 508.2L336.646 512.339C340.978 505.175 343 496.964 343 488H335ZM329.8 508.2L322.926 504.108C320.425 508.309 316.797 511.704 311.762 514.275L315.4 521.4L319.038 528.525C326.536 524.696 332.508 519.291 336.674 512.292L329.8 508.2ZM315.4 521.4L311.884 514.214C306.944 516.631 300.736 518 293 518V526V534C302.597 534 311.322 532.302 318.916 528.586L315.4 521.4ZM383.722 515.2L377.856 520.64C377.872 520.657 377.889 520.675 377.906 520.693L383.722 515.2ZM373.522 414V406C369.104 406 365.522 409.582 365.522 414H373.522ZM383.522 414H391.522C391.522 409.582 387.94 406 383.522 406V414ZM390.922 508.6L384.919 513.888C384.942 513.915 384.966 513.941 384.99 513.967L390.922 508.6ZM432.722 508.6L426.79 503.233L426.79 503.233L432.722 508.6ZM440.322 414V406C435.904 406 432.322 409.582 432.322 414H440.322ZM450.322 414H458.322C458.322 409.582 454.74 406 450.322 406V414ZM439.922 515L434.109 509.504C434.091 509.523 434.073 509.542 434.056 509.56L439.922 515ZM411.922 526V518C401.621 518 394.514 514.975 389.538 509.707L383.722 515.2L377.906 520.693C386.53 529.825 398.223 534 411.922 534V526ZM383.722 515.2L389.588 509.76C384.498 504.271 381.522 496.408 381.522 485.2H373.522H365.522C365.522 499.325 369.346 511.462 377.856 520.64L383.722 515.2ZM373.522 485.2H381.522V414H373.522H365.522V485.2H373.522ZM373.522 414V422H383.522V414V406H373.522V414ZM383.522 414H375.522V485.2H383.522H391.522V414H383.522ZM383.522 485.2H375.522C375.522 496.477 378.316 506.393 384.919 513.888L390.922 508.6L396.925 503.312C393.661 499.607 391.522 493.923 391.522 485.2H383.522ZM390.922 508.6L384.99 513.967C391.828 521.525 401.071 525 411.722 525V517V509C404.772 509 400.149 506.875 396.854 503.233L390.922 508.6ZM411.722 517V525C422.464 525 431.792 521.552 438.654 513.967L432.722 508.6L426.79 503.233C423.518 506.848 418.846 509 411.722 509V517ZM432.722 508.6L438.654 513.967C445.434 506.473 448.322 496.528 448.322 485.2H440.322H432.322C432.322 493.872 430.143 499.527 426.79 503.233L432.722 508.6ZM440.322 485.2H448.322V414H440.322H432.322V485.2H440.322ZM440.322 414V422H450.322V414V406H440.322V414ZM450.322 414H442.322V485.2H450.322H458.322V414H450.322ZM450.322 485.2H442.322C442.322 496.208 439.318 503.994 434.109 509.504L439.922 515L445.735 520.496C454.393 511.339 458.322 499.258 458.322 485.2H450.322ZM439.922 515L434.056 509.56C429.052 514.957 422.014 518 411.922 518V526V534C425.563 534 437.192 529.71 445.788 520.44L439.922 515ZM497.244 524H489.244C489.244 528.418 492.825 532 497.244 532V524ZM497.244 414V406C492.825 406 489.244 409.582 489.244 414H497.244ZM507.244 414H515.244C515.244 409.582 511.662 406 507.244 406V414ZM507.244 433H499.244C499.244 437.418 502.825 441 507.244 441V433ZM509.644 433L517.08 435.949C518.057 433.485 517.751 430.698 516.262 428.505C514.772 426.313 512.294 425 509.644 425V433ZM505.044 444.6L497.045 444.49C496.992 448.35 499.702 451.697 503.489 452.447C507.275 453.198 511.057 451.137 512.48 447.549L505.044 444.6ZM514.044 421L508.324 415.407L508.324 415.407L514.044 421ZM565.244 422.8L571.06 417.307L571.06 417.307L565.244 422.8ZM575.444 458V466C579.862 466 583.444 462.418 583.444 458H575.444ZM564.444 458H556.444C556.444 462.418 560.025 466 564.444 466V458ZM556.844 429L550.841 434.288C550.885 434.339 550.931 434.389 550.976 434.438L556.844 429ZM514.844 429L520.711 434.438C520.733 434.415 520.755 434.391 520.776 434.367L514.844 429ZM507.244 524V532C511.662 532 515.244 528.418 515.244 524H507.244ZM497.244 524H505.244V414H497.244H489.244V524H497.244ZM497.244 414V422H507.244V414V406H497.244V414ZM507.244 414H499.244V433H507.244H515.244V414H507.244ZM507.244 433V441H509.644V433V425H507.244V433ZM509.644 433L502.207 430.051L497.607 441.651L505.044 444.6L512.48 447.549L517.08 435.949L509.644 433ZM505.044 444.6L513.043 444.71C513.153 436.676 515.561 430.891 519.764 426.593L514.044 421L508.324 415.407C500.793 423.109 497.201 433.057 497.045 444.49L505.044 444.6ZM514.044 421L519.764 426.593C523.883 422.38 529.49 420 537.444 420V412V404C525.931 404 515.938 407.62 508.324 415.407L514.044 421ZM537.444 412V420C547.417 420 554.417 422.988 559.428 428.293L565.244 422.8L571.06 417.307C562.47 408.212 550.937 404 537.444 404V412ZM565.244 422.8L559.428 428.293C564.509 433.673 567.444 441.264 567.444 452H575.444H583.444C583.444 438.203 579.578 426.327 571.06 417.307L565.244 422.8ZM575.444 452H567.444V458H575.444H583.444V452H575.444ZM575.444 458V450H564.444V458V466H575.444V458ZM564.444 458H572.444V452H564.444H556.444V458H564.444ZM564.444 452H572.444C572.444 440.785 569.544 430.934 562.711 423.562L556.844 429L550.976 434.438C554.277 437.999 556.444 443.481 556.444 452H564.444ZM556.844 429L562.847 423.712C556.072 416.022 546.671 412.6 535.844 412.6V420.6V428.6C543.15 428.6 547.749 430.778 550.841 434.288L556.844 429ZM535.844 420.6V412.6C525.102 412.6 515.774 416.048 508.911 423.633L514.844 429L520.776 434.367C524.047 430.752 528.719 428.6 535.844 428.6V420.6ZM514.844 429L508.976 423.562C502.143 430.934 499.244 440.785 499.244 452H507.244H515.244C515.244 443.481 517.411 437.999 520.711 434.438L514.844 429ZM507.244 452H499.244V524H507.244H515.244V452H507.244ZM507.244 524V516H497.244V524V532H507.244V524ZM639.766 524H631.766C631.766 528.418 635.347 532 639.766 532V524ZM639.766 434.2H647.766C647.766 429.782 644.184 426.2 639.766 426.2V434.2ZM605.766 434.2H597.766C597.766 438.618 601.347 442.2 605.766 442.2V434.2ZM605.766 425.2V417.2C601.347 417.2 597.766 420.782 597.766 425.2H605.766ZM639.766 425.2V433.2C644.184 433.2 647.766 429.618 647.766 425.2H639.766ZM646.566 384.6L641.078 378.779C641.049 378.806 641.022 378.832 640.994 378.859L646.566 384.6ZM696.366 378H704.366C704.366 373.582 700.784 370 696.366 370V378ZM696.366 387V395C700.784 395 704.366 391.418 704.366 387H696.366ZM649.766 425.2H641.766C641.766 429.618 645.347 433.2 649.766 433.2V425.2ZM696.366 425.2H704.366C704.366 420.782 700.784 417.2 696.366 417.2V425.2ZM696.366 434.2V442.2C700.784 442.2 704.366 438.618 704.366 434.2H696.366ZM649.766 434.2V426.2C645.347 426.2 641.766 429.782 641.766 434.2H649.766ZM649.766 524V532C654.184 532 657.766 528.418 657.766 524H649.766ZM639.766 524H647.766V434.2H639.766H631.766V524H639.766ZM639.766 434.2V426.2H605.766V434.2V442.2H639.766V434.2ZM605.766 434.2H613.766V425.2H605.766H597.766V434.2H605.766ZM605.766 425.2V433.2H639.766V425.2V417.2H605.766V425.2ZM639.766 425.2H647.766V403H639.766H631.766V425.2H639.766ZM639.766 403H647.766C647.766 396.733 649.519 392.882 652.137 390.341L646.566 384.6L640.994 378.859C634.546 385.118 631.766 393.534 631.766 403H639.766ZM646.566 384.6L652.054 390.421C654.867 387.768 659.103 386 665.766 386V378V370C656.162 370 647.597 372.632 641.078 378.779L646.566 384.6ZM665.766 378V386H696.366V378V370H665.766V378ZM696.366 378H688.366V387H696.366H704.366V378H696.366ZM696.366 387V379H665.766V387V395H696.366V387ZM665.766 387V379C659.199 379 652.998 380.854 648.309 385.543L653.966 391.2L659.622 396.857C660.533 395.946 662.199 395 665.766 395V387ZM653.966 391.2L648.309 385.543C643.62 390.232 641.766 396.433 641.766 403H649.766H657.766C657.766 399.434 658.712 397.768 659.622 396.857L653.966 391.2ZM649.766 403H641.766V425.2H649.766H657.766V403H649.766ZM649.766 425.2V433.2H696.366V425.2V417.2H649.766V425.2ZM696.366 425.2H688.366V434.2H696.366H704.366V425.2H696.366ZM696.366 434.2V426.2H649.766V434.2V442.2H696.366V434.2ZM649.766 434.2H641.766V524H649.766H657.766V434.2H649.766ZM649.766 524V516H639.766V524V532H649.766V524Z" fill="white" mask="url(#path-10-outside-1_341_112)"/>
<defs>
<filter id="filter0_g_341_112" x="550.398" y="243.898" width="500.705" height="162.555" filterUnits="userSpaceOnUse" color-interpolation-filters="sRGB">
<feFlood flood-opacity="0" result="BackgroundImageFix"/>
<feBlend mode="normal" in="SourceGraphic" in2="BackgroundImageFix" result="shape"/>
<feTurbulence type="fractalNoise" baseFrequency="0.1041666641831398 0.1041666641831398" numOctaves="3" seed="7099" />
<feDisplacementMap in="shape" scale="10.199999809265137" xChannelSelector="R" yChannelSelector="G" result="displacedImage" width="100%" height="100%" />
<feMerge result="effect1_texture_341_112">
<feMergeNode in="displacedImage"/>
</feMerge>
</filter>
<filter id="filter1_g_341_112" x="806.045" y="153.783" width="94.3265" height="134.047" filterUnits="userSpaceOnUse" color-interpolation-filters="sRGB">
<feFlood flood-opacity="0" result="BackgroundImageFix"/>
<feBlend mode="normal" in="SourceGraphic" in2="BackgroundImageFix" result="shape"/>
<feTurbulence type="fractalNoise" baseFrequency="0.1041666641831398 0.1041666641831398" numOctaves="3" seed="6927" />
<feDisplacementMap in="shape" scale="10.199999809265137" xChannelSelector="R" yChannelSelector="G" result="displacedImage" width="100%" height="100%" />
<feMerge result="effect1_texture_341_112">
<feMergeNode in="displacedImage"/>
</feMerge>
</filter>
<filter id="filter2_g_341_112" x="740.061" y="415.945" width="187.159" height="149.594" filterUnits="userSpaceOnUse" color-interpolation-filters="sRGB">
<feFlood flood-opacity="0" result="BackgroundImageFix"/>
<feBlend mode="normal" in="SourceGraphic" in2="BackgroundImageFix" result="shape"/>
<feTurbulence type="fractalNoise" baseFrequency="0.1041666641831398 0.1041666641831398" numOctaves="3" seed="4503" />
<feDisplacementMap in="shape" scale="10.199999809265137" xChannelSelector="R" yChannelSelector="G" result="displacedImage" width="100%" height="100%" />
<feMerge result="effect1_texture_341_112">
<feMergeNode in="displacedImage"/>
</feMerge>
</filter>
<filter id="filter3_g_341_112" x="763.288" y="355.339" width="143.825" height="87.7378" filterUnits="userSpaceOnUse" color-interpolation-filters="sRGB">
<feFlood flood-opacity="0" result="BackgroundImageFix"/>
<feBlend mode="normal" in="SourceGraphic" in2="BackgroundImageFix" result="shape"/>
<feTurbulence type="fractalNoise" baseFrequency="0.1041666641831398 0.1041666641831398" numOctaves="3" seed="391" />
<feDisplacementMap in="shape" scale="10.199999809265137" xChannelSelector="R" yChannelSelector="G" result="displacedImage" width="100%" height="100%" />
<feMerge result="effect1_texture_341_112">
<feMergeNode in="displacedImage"/>
</feMerge>
</filter>
<filter id="filter4_g_341_112" x="723.144" y="237.164" width="244.865" height="172.799" filterUnits="userSpaceOnUse" color-interpolation-filters="sRGB">
<feFlood flood-opacity="0" result="BackgroundImageFix"/>
<feBlend mode="normal" in="SourceGraphic" in2="BackgroundImageFix" result="shape"/>
<feTurbulence type="fractalNoise" baseFrequency="0.1041666641831398 0.1041666641831398" numOctaves="3" seed="9968" />
<feDisplacementMap in="shape" scale="10.199999809265137" xChannelSelector="R" yChannelSelector="G" result="displacedImage" width="100%" height="100%" />
<feMerge result="effect1_texture_341_112">
<feMergeNode in="displacedImage"/>
</feMerge>
</filter>
<filter id="filter5_g_341_112" x="808.305" y="111.582" width="129.865" height="94.0162" filterUnits="userSpaceOnUse" color-interpolation-filters="sRGB">
<feFlood flood-opacity="0" result="BackgroundImageFix"/>
<feBlend mode="normal" in="SourceGraphic" in2="BackgroundImageFix" result="shape"/>
<feTurbulence type="fractalNoise" baseFrequency="0.1041666641831398 0.1041666641831398" numOctaves="3" seed="1867" />
<feDisplacementMap in="shape" scale="10.199999809265137" xChannelSelector="R" yChannelSelector="G" result="displacedImage" width="100%" height="100%" />
<feMerge result="effect1_texture_341_112">
<feMergeNode in="displacedImage"/>
</feMerge>
</filter>
<filter id="filter6_g_341_112" x="814.978" y="171.059" width="51.2312" height="46.1224" filterUnits="userSpaceOnUse" color-interpolation-filters="sRGB">
<feFlood flood-opacity="0" result="BackgroundImageFix"/>
<feBlend mode="normal" in="SourceGraphic" in2="BackgroundImageFix" result="shape"/>
<feTurbulence type="fractalNoise" baseFrequency="0.1041666641831398 0.1041666641831398" numOctaves="3" seed="2763" />
<feDisplacementMap in="shape" scale="10.199999809265137" xChannelSelector="R" yChannelSelector="G" result="displacedImage" width="100%" height="100%" />
<feMerge result="effect1_texture_341_112">
<feMergeNode in="displacedImage"/>
</feMerge>
</filter>
<filter id="filter7_g_341_112" x="822.201" y="211.994" width="51.2142" height="30.2222" filterUnits="userSpaceOnUse" color-interpolation-filters="sRGB">
<feFlood flood-opacity="0" result="BackgroundImageFix"/>
<feBlend mode="normal" in="SourceGraphic" in2="BackgroundImageFix" result="shape"/>
<feTurbulence type="fractalNoise" baseFrequency="0.1041666641831398 0.1041666641831398" numOctaves="3" seed="5654" />
<feDisplacementMap in="shape" scale="10.199999809265137" xChannelSelector="R" yChannelSelector="G" result="displacedImage" width="100%" height="100%" />
<feMerge result="effect1_texture_341_112">
<feMergeNode in="displacedImage"/>
</feMerge>
</filter>
<linearGradient id="paint0_linear_341_112" x1="640" y1="0" x2="640" y2="640" gradientUnits="userSpaceOnUse">
<stop stop-color="#FBFF0C"/>
<stop offset="0.5" stop-color="#E413FF"/>
<stop offset="1" stop-color="#3942FF"/>
</linearGradient>
<linearGradient id="paint1_linear_341_112" x1="836.716" y1="238.043" x2="864.253" y2="401.236" gradientUnits="userSpaceOnUse">
<stop stop-color="#00FF3B"/>
<stop offset="1" stop-color="#009924"/>
</linearGradient>
<linearGradient id="paint2_linear_341_112" x1="869.926" y1="116.32" x2="883.32" y2="195.697" gradientUnits="userSpaceOnUse">
<stop stop-color="#FF0000"/>
<stop offset="1" stop-color="#FFD500"/>
</linearGradient>
</defs>
</svg>
