<svg width="1024" height="1024" viewBox="0 0 1024 1024" fill="none" xmlns="http://www.w3.org/2000/svg">
<g filter="url(#filter0_d_341_45)">
<path fill-rule="evenodd" clip-rule="evenodd" d="M924 356.627C924 346.845 924.004 337.062 923.944 327.279C923.895 319.038 923.8 310.799 923.576 302.562C923.092 284.609 922.033 266.502 918.84 248.749C915.602 230.741 910.314 213.98 901.981 197.617C893.789 181.534 883.088 166.817 870.32 154.058C857.555 141.299 842.834 130.605 826.746 122.418C810.366 114.083 793.587 108.797 775.558 105.56C757.803 102.372 739.691 101.315 721.738 100.83C713.495 100.607 705.253 100.513 697.008 100.462C687.22 100.402 677.432 100.407 667.644 100.407L553.997 100H468.997L357.361 100.407C347.554 100.407 337.747 100.402 327.94 100.462C319.678 100.513 311.42 100.607 303.161 100.83C285.167 101.315 267.014 102.373 249.217 105.565C231.164 108.801 214.36 114.085 197.958 122.414C181.835 130.602 167.083 141.297 154.291 154.058C141.501 166.816 130.78 181.53 122.573 197.61C114.217 213.981 108.919 230.752 105.673 248.77C102.477 266.516 101.418 284.617 100.931 302.562C100.709 310.8 100.613 319.039 100.563 327.279C100.503 337.063 100 349.216 100 358.999L100.003 469.089L100 554.998L100.508 667.427C100.508 677.223 100.504 687.019 100.563 696.815C100.613 705.067 100.709 713.317 100.932 721.566C101.418 739.542 102.479 757.675 105.678 775.452C108.923 793.484 114.22 810.269 122.569 826.653C130.777 842.759 141.5 857.495 154.291 870.272C167.082 883.049 181.83 893.757 197.95 901.956C214.362 910.302 231.174 915.595 249.238 918.836C267.027 922.029 285.174 923.088 303.161 923.573C311.42 923.796 319.679 923.891 327.941 923.941C337.748 924.001 347.554 923.997 357.361 923.997L470.006 924H555.217L667.644 923.996C677.432 923.996 687.22 924.001 697.008 923.941C705.253 923.891 713.495 923.796 721.738 923.573C739.698 923.087 757.816 922.027 775.579 918.832C793.597 915.591 810.368 910.3 826.739 901.959C842.831 893.761 857.554 883.051 870.32 870.272C883.086 857.497 893.786 842.763 901.978 826.66C910.316 810.268 915.604 793.475 918.844 775.431C922.034 757.661 923.092 739.535 923.577 721.566C923.8 713.316 923.895 705.066 923.944 696.815C924.005 687.019 924 677.223 924 667.427C924 667.427 923.994 556.983 923.994 554.998V468.999C923.994 467.533 924 356.627 924 356.627" fill="#A1CFE7"/>
</g>
<mask id="mask0_341_45" style="mask-type:luminance" maskUnits="userSpaceOnUse" x="100" y="100" width="824" height="824">
<path fill-rule="evenodd" clip-rule="evenodd" d="M924 356.627C924 346.845 924.004 337.062 923.944 327.279C923.895 319.038 923.8 310.799 923.576 302.562C923.092 284.609 922.033 266.502 918.84 248.749C915.602 230.741 910.314 213.98 901.981 197.617C893.789 181.534 883.088 166.817 870.32 154.058C857.555 141.299 842.834 130.605 826.746 122.418C810.366 114.083 793.587 108.797 775.558 105.56C757.803 102.372 739.691 101.315 721.738 100.83C713.495 100.607 705.253 100.513 697.008 100.462C687.22 100.402 677.432 100.407 667.644 100.407L553.997 100H468.997L357.361 100.407C347.554 100.407 337.747 100.402 327.94 100.462C319.678 100.513 311.42 100.607 303.161 100.83C285.167 101.315 267.014 102.373 249.217 105.565C231.164 108.801 214.36 114.085 197.958 122.414C181.835 130.602 167.083 141.297 154.291 154.058C141.501 166.816 130.78 181.53 122.573 197.61C114.217 213.981 108.919 230.752 105.673 248.77C102.477 266.516 101.418 284.617 100.931 302.562C100.709 310.8 100.613 319.039 100.563 327.279C100.503 337.063 100 349.216 100 358.999L100.003 469.089L100 554.998L100.508 667.427C100.508 677.223 100.504 687.019 100.563 696.815C100.613 705.067 100.709 713.317 100.932 721.566C101.418 739.542 102.479 757.675 105.678 775.452C108.923 793.484 114.22 810.269 122.569 826.653C130.777 842.759 141.5 857.495 154.291 870.272C167.082 883.049 181.83 893.757 197.95 901.956C214.362 910.302 231.174 915.595 249.238 918.836C267.027 922.029 285.174 923.088 303.161 923.573C311.42 923.796 319.679 923.891 327.941 923.941C337.748 924.001 347.554 923.997 357.361 923.997L470.006 924H555.217L667.644 923.996C677.432 923.996 687.22 924.001 697.008 923.941C705.253 923.891 713.495 923.796 721.738 923.573C739.698 923.087 757.816 922.027 775.579 918.832C793.597 915.591 810.368 910.3 826.739 901.959C842.831 893.761 857.554 883.051 870.32 870.272C883.086 857.497 893.786 842.763 901.978 826.66C910.316 810.268 915.604 793.475 918.844 775.431C922.034 757.661 923.092 739.535 923.577 721.566C923.8 713.316 923.895 705.066 923.944 696.815C924.005 687.019 924 677.223 924 667.427C924 667.427 923.994 556.983 923.994 554.998V468.999C923.994 467.533 924 356.627 924 356.627" fill="white"/>
</mask>
<g mask="url(#mask0_341_45)">
<g filter="url(#filter1_n_341_45)">
<rect width="824" height="824" transform="translate(100 100)" fill="#8ADEEB"/>
</g>
</g>
<rect x="131" y="136" width="750" height="750" rx="375" fill="white" fill-opacity="0.75"/>
<rect x="162" y="162" width="700" height="700" rx="350" fill="url(#paint0_linear_341_45)" fill-opacity="0.75"/>
<mask id="mask1_341_45" style="mask-type:alpha" maskUnits="userSpaceOnUse" x="162" y="161" width="700" height="700">
<circle cx="512" cy="511" r="350" fill="#D9D9D9"/>
</mask>
<g mask="url(#mask1_341_45)">
<g filter="url(#filter4_g_341_45)">
<circle cx="332.5" cy="355.5" r="76.5" fill="url(#paint1_linear_341_45)"/>
<circle cx="332.5" cy="355.5" r="86.5" stroke="black" stroke-width="20"/>
</g>
<g filter="url(#filter5_g_341_45)">
<path d="M697.5 560.5L708.405 570.799L715.631 563.148L710.895 553.75L697.5 560.5ZM635.595 604.201C629.907 610.223 630.178 619.717 636.201 625.405C642.223 631.093 651.717 630.822 657.405 624.799L646.5 614.5L635.595 604.201ZM438.5 465L430.058 452.601L422.235 457.927L423.674 467.281L438.5 465ZM436.674 551.781C437.934 559.969 445.593 565.585 453.781 564.326C461.969 563.066 467.585 555.407 466.326 547.219L451.5 549.5L436.674 551.781ZM665.5 497L652.105 503.75L684.105 567.25L697.5 560.5L710.895 553.75L678.895 490.25L665.5 497ZM697.5 560.5L686.595 550.201L635.595 604.201L646.5 614.5L657.405 624.799L708.405 570.799L697.5 560.5ZM485.5 433L477.058 420.601L430.058 452.601L438.5 465L446.942 477.399L493.942 445.399L485.5 433ZM438.5 465L423.674 467.281L436.674 551.781L451.5 549.5L466.326 547.219L453.326 462.719L438.5 465Z" fill="white"/>
</g>
<g filter="url(#filter6_g_341_45)">
<path d="M609 407H593L582 399L574.5 363L593 341L609 336L630 341L641 372L609 407Z" fill="#2CC3FF"/>
<path d="M582 399L568 419L582 440.5L609 436V407H593L582 399Z" fill="#2CC3FF"/>
<path d="M582 399L568 419L582 440.5L609 436V407M582 399L593 407H609M582 399L574.5 363L593 341L609 336L630 341L641 372L609 407" stroke="white" stroke-width="15"/>
</g>
<g filter="url(#filter7_g_341_45)">
<path d="M103.165 694.462C103.165 694.462 220.395 662.322 297.5 655.845C361.5 650.47 428 674.5 508.5 689C589 703.5 735.503 599.665 777 599C811.43 592.147 865.165 581.452 865.165 581.452L846.981 805.2L545.818 906.283L145.214 839.273L103.165 694.462Z" fill="url(#paint2_linear_341_45)"/>
<path d="M875.131 582.262L856.948 806.01L856.415 812.582L850.163 814.68L549 915.764L546.631 916.559L544.167 916.146L143.564 849.136L137.364 848.099L135.611 842.062L93.561 697.25L90.731 687.502L100.52 684.817L103.165 694.462C100.521 684.818 100.522 684.817 100.523 684.816C100.524 684.816 100.526 684.816 100.528 684.815C100.532 684.814 100.539 684.813 100.546 684.811C100.562 684.806 100.585 684.8 100.615 684.792C100.674 684.776 100.762 684.752 100.877 684.721C101.108 684.658 101.447 684.565 101.892 684.445C102.782 684.205 104.093 683.853 105.785 683.403C109.169 682.504 114.081 681.215 120.212 679.649C132.473 676.518 149.625 672.276 169.204 667.83C208.232 658.967 257.38 649.18 296.664 645.881C330.123 643.071 363.88 647.973 398.831 655.175C434.402 662.505 469.982 671.901 510.273 679.158C528.083 682.366 550.523 679.119 575.707 671.569C600.703 664.075 627.336 652.681 653.144 640.627C666.025 634.611 678.615 628.471 690.653 622.604C702.655 616.753 714.144 611.155 724.674 606.301C735.184 601.456 744.952 597.252 753.519 594.225C761.487 591.409 769.201 589.32 775.852 589.032C788.7 586.475 804.114 583.407 818.393 580.565C830.043 576.354 842.675 571.937 864.067 571.475L876.205 569.059L875.131 582.262Z" stroke="black" stroke-width="20"/>
</g>
<g filter="url(#filter8_g_341_45)">
<path d="M516.602 636.023C448.764 637.28 367.14 695.674 365.036 713.863C362.932 732.053 454.105 760.157 516.602 760.977C581.861 761.834 668.467 738.223 675.621 713.863C682.776 689.503 586.993 634.719 516.602 636.023Z" fill="url(#paint3_linear_341_45)"/>
<path d="M516.602 636.023C448.764 637.28 367.14 695.674 365.036 713.863C362.932 732.053 454.105 760.157 516.602 760.977C581.861 761.834 668.467 738.223 675.621 713.863C682.776 689.503 586.993 634.719 516.602 636.023Z" stroke="black" stroke-width="30"/>
</g>
<g filter="url(#filter9_g_341_45)">
<path d="M488.5 693V708H500.85L503.221 695.88L488.5 693ZM446 678C437.716 678 431 684.716 431 693C431 701.284 437.716 708 446 708V693V678ZM567 693L552.102 691.252L550.466 705.193L564.269 707.749L567 693ZM618.269 717.749C626.414 719.258 634.241 713.877 635.749 705.731C637.258 697.586 631.877 689.759 623.731 688.251L621 703L618.269 717.749ZM511 578L496.279 575.12L473.779 690.12L488.5 693L503.221 695.88L525.721 580.88L511 578ZM488.5 693V678H446V693V708H488.5V693ZM578.5 595L563.602 593.252L552.102 691.252L567 693L581.898 694.748L593.398 596.748L578.5 595ZM567 693L564.269 707.749L618.269 717.749L621 703L623.731 688.251L569.731 678.251L567 693Z" fill="white"/>
</g>
<g filter="url(#filter10_g_341_45)">
<path d="M525 583.082L534.5 568.423L567 580.232L561.5 597.742L598.5 601C598.5 601 629.5 568.5 614 561.5C598.5 554.5 534.5 530.5 514 522C493.5 513.5 495 577.789 495 577.789L525 583.082Z" fill="#FF0000"/>
<path d="M525 583.082L534.5 568.423L567 580.232L561.5 597.742L598.5 601C598.5 601 629.5 568.5 614 561.5C598.5 554.5 534.5 530.5 514 522C493.5 513.5 495 577.789 495 577.789L525 583.082Z" stroke="black" stroke-width="10"/>
</g>
<g filter="url(#filter11_g_341_45)">
<path d="M514 534.5L599.5 570L629.5 489L661.5 521L691 494L661.5 456L611.5 429L590.5 433.5L567.5 411.5L529.5 404.5L479 414.5V448L515 450L514 534.5Z" fill="url(#paint4_linear_341_45)"/>
<path d="M514 534.5L599.5 570L629.5 489L661.5 521L691 494L661.5 456L611.5 429L590.5 433.5L567.5 411.5L529.5 404.5L479 414.5V448L515 450L514 534.5Z" stroke="black" stroke-width="10"/>
</g>
<g filter="url(#filter12_g_341_45)">
<path d="M593 336L588 290M615.5 336L612 290M627.5 340L635 290M638 352L672.5 315.5M643.5 370.5L688 344" stroke="url(#paint5_linear_341_45)" stroke-width="15"/>
</g>
<g filter="url(#filter13_g_341_45)">
<path d="M598.5 350.5L592.5 366M620.5 356.5L615 374.5" stroke="black" stroke-width="15" stroke-linecap="round"/>
</g>
<g filter="url(#filter14_g_341_45)">
<path d="M585 393L586.916 394.262C594.143 399.023 603.408 399.403 611 395.25" stroke="black" stroke-width="15" stroke-linecap="round"/>
</g>
</g>
<defs>
<filter id="filter0_d_341_45" x="90" y="100" width="844" height="844" filterUnits="userSpaceOnUse" color-interpolation-filters="sRGB">
<feFlood flood-opacity="0" result="BackgroundImageFix"/>
<feColorMatrix in="SourceAlpha" type="matrix" values="0 0 0 0 0 0 0 0 0 0 0 0 0 0 0 0 0 0 127 0" result="hardAlpha"/>
<feOffset dy="10"/>
<feGaussianBlur stdDeviation="5"/>
<feColorMatrix type="matrix" values="0 0 0 0 0 0 0 0 0 0 0 0 0 0 0 0 0 0 0.3 0"/>
<feBlend mode="normal" in2="BackgroundImageFix" result="effect1_dropShadow_341_45"/>
<feBlend mode="normal" in="SourceGraphic" in2="effect1_dropShadow_341_45" result="shape"/>
</filter>
<filter id="filter1_n_341_45" x="100" y="100" width="824" height="824" filterUnits="userSpaceOnUse" color-interpolation-filters="sRGB">
<feFlood flood-opacity="0" result="BackgroundImageFix"/>
<feBlend mode="normal" in="SourceGraphic" in2="BackgroundImageFix" result="shape"/>
<feTurbulence type="fractalNoise" baseFrequency="0.0099999997764825821 0.0099999997764825821" stitchTiles="stitch" numOctaves="3" result="noise" seed="1420" />
<feColorMatrix in="noise" type="luminanceToAlpha" result="alphaNoise" />
<feComponentTransfer in="alphaNoise" result="coloredNoise1">
<feFuncA type="discrete" tableValues="0 0 0 0 1 1 1 1 1 1 1 1 1 1 1 1 1 1 1 1 1 1 1 1 1 1 1 1 1 1 1 1 1 1 1 1 1 1 1 1 1 1 1 1 1 1 0 0 0 0 0 0 0 0 0 0 0 0 0 0 0 0 0 0 0 0 0 0 0 0 0 0 0 0 0 0 0 0 0 0 0 0 0 0 0 0 0 0 0 0 0 0 0 0 0 0 0 0 0 0 "/>
</feComponentTransfer>
<feComposite operator="in" in2="shape" in="coloredNoise1" result="noise1Clipped" />
<feFlood flood-color="#FF0000" result="color1Flood" />
<feComposite operator="in" in2="noise1Clipped" in="color1Flood" result="color1" />
<feMerge result="effect1_noise_341_45">
<feMergeNode in="shape" />
<feMergeNode in="color1" />
</feMerge>
</filter>
<filter id="filter4_g_341_45" x="228.23" y="251.23" width="208.54" height="208.54" filterUnits="userSpaceOnUse" color-interpolation-filters="sRGB">
<feFlood flood-opacity="0" result="BackgroundImageFix"/>
<feBlend mode="normal" in="SourceGraphic" in2="BackgroundImageFix" result="shape"/>
<feTurbulence type="fractalNoise" baseFrequency="0.09765625 0.09765625" numOctaves="3" seed="8904" />
<feDisplacementMap in="shape" scale="15.539999961853027" xChannelSelector="R" yChannelSelector="G" result="displacedImage" width="100%" height="100%" />
<feMerge result="effect1_texture_341_45">
<feMergeNode in="displacedImage"/>
</feMerge>
</filter>
<filter id="filter5_g_341_45" x="417.135" y="415.501" width="303.596" height="219.099" filterUnits="userSpaceOnUse" color-interpolation-filters="sRGB">
<feFlood flood-opacity="0" result="BackgroundImageFix"/>
<feBlend mode="normal" in="SourceGraphic" in2="BackgroundImageFix" result="shape"/>
<feTurbulence type="fractalNoise" baseFrequency="0.1041666641831398 0.1041666641831398" numOctaves="3" seed="7099" />
<feDisplacementMap in="shape" scale="10.199999809265137" xChannelSelector="R" yChannelSelector="G" result="displacedImage" width="100%" height="100%" />
<feMerge result="effect1_texture_341_45">
<feMergeNode in="displacedImage"/>
</feMerge>
</filter>
<filter id="filter6_g_341_45" x="553.851" y="323.126" width="100.823" height="130.678" filterUnits="userSpaceOnUse" color-interpolation-filters="sRGB">
<feFlood flood-opacity="0" result="BackgroundImageFix"/>
<feBlend mode="normal" in="SourceGraphic" in2="BackgroundImageFix" result="shape"/>
<feTurbulence type="fractalNoise" baseFrequency="0.1041666641831398 0.1041666641831398" numOctaves="3" seed="6927" />
<feDisplacementMap in="shape" scale="10.199999809265137" xChannelSelector="R" yChannelSelector="G" result="displacedImage" width="100%" height="100%" />
<feMerge result="effect1_texture_341_45">
<feMergeNode in="displacedImage"/>
</feMerge>
</filter>
<filter id="filter7_g_341_45" x="73.1564" y="551.525" width="819.229" height="380.448" filterUnits="userSpaceOnUse" color-interpolation-filters="sRGB">
<feFlood flood-opacity="0" result="BackgroundImageFix"/>
<feBlend mode="normal" in="SourceGraphic" in2="BackgroundImageFix" result="shape"/>
<feTurbulence type="fractalNoise" baseFrequency="0.10460250824689865 0.10460250824689865" numOctaves="3" seed="1795" />
<feDisplacementMap in="shape" scale="10.279999732971191" xChannelSelector="R" yChannelSelector="G" result="displacedImage" width="100%" height="100%" />
<feMerge result="effect1_texture_341_45">
<feMergeNode in="displacedImage"/>
</feMerge>
</filter>
<filter id="filter8_g_341_45" x="344.896" y="615.9" width="351.211" height="165.2" filterUnits="userSpaceOnUse" color-interpolation-filters="sRGB">
<feFlood flood-opacity="0" result="BackgroundImageFix"/>
<feBlend mode="normal" in="SourceGraphic" in2="BackgroundImageFix" result="shape"/>
<feTurbulence type="fractalNoise" baseFrequency="0.1041666641831398 0.1041666641831398" numOctaves="3" seed="1642" />
<feDisplacementMap in="shape" scale="10.199999809265137" xChannelSelector="R" yChannelSelector="G" result="displacedImage" width="100%" height="100%" />
<feMerge result="effect1_texture_341_45">
<feMergeNode in="displacedImage"/>
</feMerge>
</filter>
<filter id="filter9_g_341_45" x="425.9" y="570.02" width="215.202" height="153.083" filterUnits="userSpaceOnUse" color-interpolation-filters="sRGB">
<feFlood flood-opacity="0" result="BackgroundImageFix"/>
<feBlend mode="normal" in="SourceGraphic" in2="BackgroundImageFix" result="shape"/>
<feTurbulence type="fractalNoise" baseFrequency="0.1041666641831398 0.1041666641831398" numOctaves="3" seed="4503" />
<feDisplacementMap in="shape" scale="10.199999809265137" xChannelSelector="R" yChannelSelector="G" result="displacedImage" width="100%" height="100%" />
<feMerge result="effect1_texture_341_45">
<feMergeNode in="displacedImage"/>
</feMerge>
</filter>
<filter id="filter10_g_341_45" x="484.876" y="511.126" width="143.564" height="100.166" filterUnits="userSpaceOnUse" color-interpolation-filters="sRGB">
<feFlood flood-opacity="0" result="BackgroundImageFix"/>
<feBlend mode="normal" in="SourceGraphic" in2="BackgroundImageFix" result="shape"/>
<feTurbulence type="fractalNoise" baseFrequency="0.1041666641831398 0.1041666641831398" numOctaves="3" seed="391" />
<feDisplacementMap in="shape" scale="10.199999809265137" xChannelSelector="R" yChannelSelector="G" result="displacedImage" width="100%" height="100%" />
<feMerge result="effect1_texture_341_45">
<feMergeNode in="displacedImage"/>
</feMerge>
</filter>
<filter id="filter11_g_341_45" x="468.9" y="394.31" width="233.977" height="187.401" filterUnits="userSpaceOnUse" color-interpolation-filters="sRGB">
<feFlood flood-opacity="0" result="BackgroundImageFix"/>
<feBlend mode="normal" in="SourceGraphic" in2="BackgroundImageFix" result="shape"/>
<feTurbulence type="fractalNoise" baseFrequency="0.1041666641831398 0.1041666641831398" numOctaves="3" seed="9968" />
<feDisplacementMap in="shape" scale="10.199999809265137" xChannelSelector="R" yChannelSelector="G" result="displacedImage" width="100%" height="100%" />
<feMerge result="effect1_texture_341_45">
<feMergeNode in="displacedImage"/>
</feMerge>
</filter>
<filter id="filter12_g_341_45" x="575.444" y="283.787" width="121.493" height="98.2565" filterUnits="userSpaceOnUse" color-interpolation-filters="sRGB">
<feFlood flood-opacity="0" result="BackgroundImageFix"/>
<feBlend mode="normal" in="SourceGraphic" in2="BackgroundImageFix" result="shape"/>
<feTurbulence type="fractalNoise" baseFrequency="0.1041666641831398 0.1041666641831398" numOctaves="3" seed="1867" />
<feDisplacementMap in="shape" scale="10.199999809265137" xChannelSelector="R" yChannelSelector="G" result="displacedImage" width="100%" height="100%" />
<feMerge result="effect1_texture_341_45">
<feMergeNode in="displacedImage"/>
</feMerge>
</filter>
<filter id="filter13_g_341_45" x="579.898" y="337.898" width="53.2039" height="49.204" filterUnits="userSpaceOnUse" color-interpolation-filters="sRGB">
<feFlood flood-opacity="0" result="BackgroundImageFix"/>
<feBlend mode="normal" in="SourceGraphic" in2="BackgroundImageFix" result="shape"/>
<feTurbulence type="fractalNoise" baseFrequency="0.1041666641831398 0.1041666641831398" numOctaves="3" seed="2763" />
<feDisplacementMap in="shape" scale="10.199999809265137" xChannelSelector="R" yChannelSelector="G" result="displacedImage" width="100%" height="100%" />
<feMerge result="effect1_texture_341_45">
<feMergeNode in="displacedImage"/>
</feMerge>
</filter>
<filter id="filter14_g_341_45" x="572.399" y="380.399" width="51.2024" height="30.3195" filterUnits="userSpaceOnUse" color-interpolation-filters="sRGB">
<feFlood flood-opacity="0" result="BackgroundImageFix"/>
<feBlend mode="normal" in="SourceGraphic" in2="BackgroundImageFix" result="shape"/>
<feTurbulence type="fractalNoise" baseFrequency="0.1041666641831398 0.1041666641831398" numOctaves="3" seed="5654" />
<feDisplacementMap in="shape" scale="10.199999809265137" xChannelSelector="R" yChannelSelector="G" result="displacedImage" width="100%" height="100%" />
<feMerge result="effect1_texture_341_45">
<feMergeNode in="displacedImage"/>
</feMerge>
</filter>
<linearGradient id="paint0_linear_341_45" x1="512" y1="162" x2="512.492" y2="710.383" gradientUnits="userSpaceOnUse">
<stop stop-color="#FBFF0C"/>
<stop offset="0.5" stop-color="#E413FF"/>
<stop offset="1" stop-color="#3942FF"/>
</linearGradient>
<linearGradient id="paint1_linear_341_45" x1="332.5" y1="279" x2="332.5" y2="432" gradientUnits="userSpaceOnUse">
<stop stop-color="#FFD231"/>
<stop offset="1" stop-color="#FA9600"/>
</linearGradient>
<linearGradient id="paint2_linear_341_45" x1="504.816" y1="620.068" x2="526.5" y2="873.5" gradientUnits="userSpaceOnUse">
<stop stop-color="#3187FE"/>
<stop offset="1" stop-color="#1D5198"/>
</linearGradient>
<linearGradient id="paint3_linear_341_45" x1="520.329" y1="636.023" x2="520.329" y2="760.977" gradientUnits="userSpaceOnUse">
<stop stop-color="#FF9500"/>
<stop offset="1" stop-color="#FF5E00"/>
</linearGradient>
<linearGradient id="paint4_linear_341_45" x1="585" y1="404.5" x2="585" y2="570" gradientUnits="userSpaceOnUse">
<stop stop-color="#00FF3B"/>
<stop offset="1" stop-color="#009924"/>
</linearGradient>
<linearGradient id="paint5_linear_341_45" x1="638" y1="290" x2="638" y2="370.5" gradientUnits="userSpaceOnUse">
<stop stop-color="#FF0000"/>
<stop offset="1" stop-color="#FFD500"/>
</linearGradient>
</defs>
</svg>
