<svg width="3500" height="1000" viewBox="0 0 3500 1000" fill="none" xmlns="http://www.w3.org/2000/svg">
<g clip-path="url(#clip0_342_171)">
<mask id="path-1-outside-1_342_171" maskUnits="userSpaceOnUse" x="68" y="176" width="3320" height="640" fill="black">
<rect fill="white" x="68" y="176" width="3320" height="640"/>
<path d="M88.6938 788L181.494 204H301.494L265.494 428H399.894L435.894 204H555.894L463.094 788H343.094L382.294 540H247.894L208.694 788H88.6938ZM753.981 796C694.781 796 651.048 780 622.781 748C595.048 716 585.448 672.267 593.981 616.8L636.381 348H756.381L713.981 616C710.248 640.533 713.181 659.467 722.781 672.8C732.381 685.6 748.381 692 770.781 692C792.648 692 810.515 685.6 824.381 672.8C838.781 659.467 847.848 640.533 851.581 616L893.981 348H1013.98L971.581 616.8C965.715 654.133 952.915 686.133 933.181 712.8C913.981 739.467 888.915 760 857.981 774.4C827.581 788.8 792.915 796 753.981 796ZM1234.47 796C1195.54 796 1162.74 788.8 1136.07 774.4C1109.4 759.467 1090.2 738.933 1078.47 712.8C1067.27 686.133 1064.34 655.2 1069.67 620L1086.47 516C1092.34 480.8 1105.14 450.133 1124.87 424C1145.14 397.333 1170.74 376.8 1201.67 362.4C1233.14 347.467 1268.34 340 1307.27 340C1346.2 340 1378.74 347.467 1404.87 362.4C1431.54 376.8 1450.47 397.333 1461.67 424C1473.4 450.133 1476.34 480.8 1470.47 516L1457.67 596H1188.07L1184.07 620C1179.8 647.733 1183.27 668.8 1194.47 683.2C1205.67 697.067 1224.6 704 1251.27 704C1269.94 704 1285.4 700.8 1297.67 694.4C1310.47 688 1319.54 679.2 1324.87 668H1442.47C1432.34 693.6 1416.87 716 1396.07 735.2C1375.27 754.4 1351 769.333 1323.27 780C1296.07 790.667 1266.47 796 1234.47 796ZM1352.87 534.4L1356.07 514.4C1360.34 487.2 1357.4 466.4 1347.27 452C1337.14 437.6 1319 430.4 1292.87 430.4C1266.74 430.4 1245.94 437.867 1230.47 452.8C1215 467.733 1205.14 488.8 1200.87 516L1198.47 528L1362.47 526.4L1352.87 534.4ZM1754.16 796C1718.42 796 1687.22 789.6 1660.56 776.8C1634.42 764 1614.16 745.867 1599.76 722.4C1585.36 698.933 1578.16 671.467 1578.16 640H1618.16C1618.16 676.267 1630.42 705.333 1654.96 727.2C1680.02 749.067 1713.09 760 1754.16 760C1794.16 760 1825.36 750.133 1847.76 730.4C1870.69 710.133 1882.16 682.133 1882.16 646.4C1882.16 615.467 1873.36 588.533 1855.76 565.6C1838.16 542.667 1814.16 526.667 1783.76 517.6L1716.56 497.6C1678.16 485.867 1648.02 466.4 1626.16 439.2C1604.82 411.467 1594.16 378.667 1594.16 340.8C1594.16 310.933 1600.56 285.333 1613.36 264C1626.69 242.133 1645.36 225.333 1669.36 213.6C1693.89 201.867 1722.42 196 1754.96 196C1804.02 196 1842.69 209.867 1870.96 237.6C1899.76 264.8 1914.16 302.133 1914.16 349.6H1874.16C1874.16 313.867 1863.22 285.333 1841.36 264C1819.49 242.667 1790.42 232 1754.16 232C1716.82 232 1687.49 241.333 1666.16 260C1644.82 278.667 1634.16 304.533 1634.16 337.6C1634.16 366.4 1642.42 391.733 1658.96 413.6C1675.49 434.933 1697.89 450.133 1726.16 459.2L1793.36 480C1832.82 492.267 1864.02 513.067 1886.96 542.4C1910.42 571.733 1922.16 605.6 1922.16 644C1922.16 674.933 1915.22 701.867 1901.36 724.8C1888.02 747.2 1868.82 764.8 1843.76 777.6C1818.69 789.867 1788.82 796 1754.16 796ZM2229.84 796C2181.84 796 2144.24 781.6 2117.04 752.8C2089.84 723.467 2076.24 683.467 2076.24 632.8V348H2116.24V632.8C2116.24 672.8 2126.11 704 2145.84 726.4C2166.11 748.8 2193.84 760 2229.04 760C2264.78 760 2292.78 748.8 2313.04 726.4C2333.31 704 2343.44 672.8 2343.44 632.8V348H2383.44V632.8C2383.44 682.933 2369.58 722.667 2341.84 752C2314.64 781.333 2277.31 796 2229.84 796ZM2571.13 788V348H2611.13V424H2620.73L2602.33 470.4C2602.86 431.467 2614.86 400 2638.33 376C2661.8 352 2693 340 2731.93 340C2778.86 340 2815.93 354.4 2843.13 383.2C2870.33 412 2883.93 450.933 2883.93 500V524H2839.93V500C2839.93 460.533 2829.8 429.867 2809.53 408C2789.8 385.6 2761.8 374.4 2725.53 374.4C2689.8 374.4 2661.8 385.6 2641.53 408C2621.26 429.867 2611.13 460.533 2611.13 500V788H2571.13ZM3141.22 788V428.8H3005.22V392.8H3141.22V304C3141.22 272.533 3150.29 248 3168.42 230.4C3187.09 212.8 3212.69 204 3245.22 204H3367.62V240H3245.22C3224.95 240 3209.22 245.6 3198.02 256.8C3186.82 268 3181.22 283.733 3181.22 304V392.8H3367.62V428.8H3181.22V788H3141.22Z"/>
</mask>
<path d="M88.6938 788L181.494 204H301.494L265.494 428H399.894L435.894 204H555.894L463.094 788H343.094L382.294 540H247.894L208.694 788H88.6938ZM753.981 796C694.781 796 651.048 780 622.781 748C595.048 716 585.448 672.267 593.981 616.8L636.381 348H756.381L713.981 616C710.248 640.533 713.181 659.467 722.781 672.8C732.381 685.6 748.381 692 770.781 692C792.648 692 810.515 685.6 824.381 672.8C838.781 659.467 847.848 640.533 851.581 616L893.981 348H1013.98L971.581 616.8C965.715 654.133 952.915 686.133 933.181 712.8C913.981 739.467 888.915 760 857.981 774.4C827.581 788.8 792.915 796 753.981 796ZM1234.47 796C1195.54 796 1162.74 788.8 1136.07 774.4C1109.4 759.467 1090.2 738.933 1078.47 712.8C1067.27 686.133 1064.34 655.2 1069.67 620L1086.47 516C1092.34 480.8 1105.14 450.133 1124.87 424C1145.14 397.333 1170.74 376.8 1201.67 362.4C1233.14 347.467 1268.34 340 1307.27 340C1346.2 340 1378.74 347.467 1404.87 362.4C1431.54 376.8 1450.47 397.333 1461.67 424C1473.4 450.133 1476.34 480.8 1470.47 516L1457.67 596H1188.07L1184.07 620C1179.8 647.733 1183.27 668.8 1194.47 683.2C1205.67 697.067 1224.6 704 1251.27 704C1269.94 704 1285.4 700.8 1297.67 694.4C1310.47 688 1319.54 679.2 1324.87 668H1442.47C1432.34 693.6 1416.87 716 1396.07 735.2C1375.27 754.4 1351 769.333 1323.27 780C1296.07 790.667 1266.47 796 1234.47 796ZM1352.87 534.4L1356.07 514.4C1360.34 487.2 1357.4 466.4 1347.27 452C1337.14 437.6 1319 430.4 1292.87 430.4C1266.74 430.4 1245.94 437.867 1230.47 452.8C1215 467.733 1205.14 488.8 1200.87 516L1198.47 528L1362.47 526.4L1352.87 534.4ZM1754.16 796C1718.42 796 1687.22 789.6 1660.56 776.8C1634.42 764 1614.16 745.867 1599.76 722.4C1585.36 698.933 1578.16 671.467 1578.16 640H1618.16C1618.16 676.267 1630.42 705.333 1654.96 727.2C1680.02 749.067 1713.09 760 1754.16 760C1794.16 760 1825.36 750.133 1847.76 730.4C1870.69 710.133 1882.16 682.133 1882.16 646.4C1882.16 615.467 1873.36 588.533 1855.76 565.6C1838.16 542.667 1814.16 526.667 1783.76 517.6L1716.56 497.6C1678.16 485.867 1648.02 466.4 1626.16 439.2C1604.82 411.467 1594.16 378.667 1594.16 340.8C1594.16 310.933 1600.56 285.333 1613.36 264C1626.69 242.133 1645.36 225.333 1669.36 213.6C1693.89 201.867 1722.42 196 1754.96 196C1804.02 196 1842.69 209.867 1870.96 237.6C1899.76 264.8 1914.16 302.133 1914.16 349.6H1874.16C1874.16 313.867 1863.22 285.333 1841.36 264C1819.49 242.667 1790.42 232 1754.16 232C1716.82 232 1687.49 241.333 1666.16 260C1644.82 278.667 1634.16 304.533 1634.16 337.6C1634.16 366.4 1642.42 391.733 1658.96 413.6C1675.49 434.933 1697.89 450.133 1726.16 459.2L1793.36 480C1832.82 492.267 1864.02 513.067 1886.96 542.4C1910.42 571.733 1922.16 605.6 1922.16 644C1922.16 674.933 1915.22 701.867 1901.36 724.8C1888.02 747.2 1868.82 764.8 1843.76 777.6C1818.69 789.867 1788.82 796 1754.16 796ZM2229.84 796C2181.84 796 2144.24 781.6 2117.04 752.8C2089.84 723.467 2076.24 683.467 2076.24 632.8V348H2116.24V632.8C2116.24 672.8 2126.11 704 2145.84 726.4C2166.11 748.8 2193.84 760 2229.04 760C2264.78 760 2292.78 748.8 2313.04 726.4C2333.31 704 2343.44 672.8 2343.44 632.8V348H2383.44V632.8C2383.44 682.933 2369.58 722.667 2341.84 752C2314.64 781.333 2277.31 796 2229.84 796ZM2571.13 788V348H2611.13V424H2620.73L2602.33 470.4C2602.86 431.467 2614.86 400 2638.33 376C2661.8 352 2693 340 2731.93 340C2778.86 340 2815.93 354.4 2843.13 383.2C2870.33 412 2883.93 450.933 2883.93 500V524H2839.93V500C2839.93 460.533 2829.8 429.867 2809.53 408C2789.8 385.6 2761.8 374.4 2725.53 374.4C2689.8 374.4 2661.8 385.6 2641.53 408C2621.26 429.867 2611.13 460.533 2611.13 500V788H2571.13ZM3141.22 788V428.8H3005.22V392.8H3141.22V304C3141.22 272.533 3150.29 248 3168.42 230.4C3187.09 212.8 3212.69 204 3245.22 204H3367.62V240H3245.22C3224.95 240 3209.22 245.6 3198.02 256.8C3186.82 268 3181.22 283.733 3181.22 304V392.8H3367.62V428.8H3181.22V788H3141.22Z" fill="black"/>
<path d="M88.6938 788L68.9416 784.861C68.0231 790.641 69.6825 796.534 73.4823 800.985C77.2822 805.436 82.8411 808 88.6938 808V788ZM181.494 204V184C171.66 184 163.285 191.149 161.742 200.861L181.494 204ZM301.494 204L321.24 207.174C322.17 201.389 320.517 195.488 316.717 191.028C312.917 186.569 307.353 184 301.494 184V204ZM265.494 428L245.747 424.826C244.817 430.611 246.471 436.512 250.271 440.972C254.071 445.431 259.635 448 265.494 448V428ZM399.894 428V448C409.714 448 418.082 440.87 419.64 431.174L399.894 428ZM435.894 204V184C426.073 184 417.705 191.13 416.147 200.826L435.894 204ZM555.894 204L575.646 207.139C576.564 201.359 574.905 195.466 571.105 191.015C567.305 186.564 561.746 184 555.894 184V204ZM463.094 788V808C472.928 808 481.303 800.851 482.846 791.139L463.094 788ZM343.094 788L323.339 784.877C322.426 790.655 324.088 796.544 327.888 800.991C331.687 805.439 337.244 808 343.094 808V788ZM382.294 540L402.049 543.123C402.962 537.344 401.3 531.456 397.5 527.009C393.7 522.561 388.144 520 382.294 520V540ZM247.894 540V520C238.054 520 229.675 527.158 228.139 536.877L247.894 540ZM208.694 788V808C218.534 808 226.912 800.842 228.448 791.123L208.694 788ZM88.6938 788L108.446 791.139L201.246 207.139L181.494 204L161.742 200.861L68.9416 784.861L88.6938 788ZM181.494 204V224H301.494V204V184H181.494V204ZM301.494 204L281.747 200.826L245.747 424.826L265.494 428L285.24 431.174L321.24 207.174L301.494 204ZM265.494 428V448H399.894V428V408H265.494V428ZM399.894 428L419.64 431.174L455.64 207.174L435.894 204L416.147 200.826L380.147 424.826L399.894 428ZM435.894 204V224H555.894V204V184H435.894V204ZM555.894 204L536.142 200.861L443.342 784.861L463.094 788L482.846 791.139L575.646 207.139L555.894 204ZM463.094 788V768H343.094V788V808H463.094V788ZM343.094 788L362.848 791.123L402.049 543.123L382.294 540L362.539 536.877L323.339 784.877L343.094 788ZM382.294 540V520H247.894V540V560H382.294V540ZM247.894 540L228.139 536.877L188.939 784.877L208.694 788L228.448 791.123L267.649 543.123L247.894 540ZM208.694 788V768H88.6938V788V808H208.694V788ZM622.781 748L607.667 761.099C607.709 761.146 607.75 761.194 607.792 761.241L622.781 748ZM593.981 616.8L574.226 613.684C574.222 613.709 574.218 613.734 574.214 613.759L593.981 616.8ZM636.381 348V328C626.539 328 618.159 335.161 616.626 344.884L636.381 348ZM756.381 348L776.136 351.125C777.05 345.347 775.388 339.458 771.588 335.01C767.788 330.561 762.232 328 756.381 328V348ZM713.981 616L694.227 612.875C694.221 612.913 694.215 612.952 694.209 612.991L713.981 616ZM722.781 672.8L706.551 684.486C706.626 684.591 706.703 684.696 706.781 684.8L722.781 672.8ZM824.381 672.8L837.947 687.496C837.954 687.489 837.962 687.482 837.969 687.475L824.381 672.8ZM851.581 616L831.827 612.875C831.821 612.913 831.815 612.952 831.809 612.991L851.581 616ZM893.981 348V328C884.142 328 875.764 335.156 874.227 344.875L893.981 348ZM1013.98 348L1033.74 351.116C1034.65 345.339 1032.99 339.452 1029.19 335.006C1025.39 330.56 1019.83 328 1013.98 328V348ZM971.581 616.8L951.826 613.684L951.824 613.695L971.581 616.8ZM933.181 712.8L917.104 700.903C917.053 700.973 917.001 701.043 916.951 701.114L933.181 712.8ZM857.981 774.4L849.541 756.268C849.5 756.287 849.46 756.306 849.42 756.325L857.981 774.4ZM753.981 796V776C698.213 776 660.944 760.994 637.771 734.759L622.781 748L607.792 761.241C641.151 799.006 691.35 816 753.981 816V796ZM622.781 748L637.895 734.901C615.163 708.672 605.799 671.512 613.749 619.841L593.981 616.8L574.214 613.759C565.097 673.021 574.933 723.328 607.667 761.099L622.781 748ZM593.981 616.8L613.737 619.916L656.137 351.116L636.381 348L616.626 344.884L574.226 613.684L593.981 616.8ZM636.381 348V368H756.381V348V328H636.381V348ZM756.381 348L736.627 344.875L694.227 612.875L713.981 616L733.736 619.125L776.136 351.125L756.381 348ZM713.981 616L694.209 612.991C690.083 640.104 692.643 665.169 706.551 684.486L722.781 672.8L739.012 661.114C733.72 653.764 730.413 640.963 733.754 619.009L713.981 616ZM722.781 672.8L706.781 684.8C721.52 704.452 744.768 712 770.781 712V692V672C751.994 672 743.242 666.748 738.781 660.8L722.781 672.8ZM770.781 692V712C796.823 712 819.803 704.244 837.947 687.496L824.381 672.8L810.816 658.104C801.226 666.956 788.473 672 770.781 672V692ZM824.381 672.8L837.969 687.475C856.489 670.328 867.123 646.813 871.354 619.009L851.581 616L831.809 612.991C828.573 634.254 821.074 648.606 810.793 658.125L824.381 672.8ZM851.581 616L871.336 619.125L913.736 351.125L893.981 348L874.227 344.875L831.827 612.875L851.581 616ZM893.981 348V368H1013.98V348V328H893.981V348ZM1013.98 348L994.226 344.884L951.826 613.684L971.581 616.8L991.337 619.916L1033.74 351.116L1013.98 348ZM971.581 616.8L951.824 613.695C946.387 648.291 934.668 677.169 917.104 700.903L933.181 712.8L949.258 724.697C971.161 695.098 985.042 659.976 991.339 619.905L971.581 616.8ZM933.181 712.8L916.951 701.114C899.831 724.891 877.492 743.256 849.541 756.268L857.981 774.4L866.422 792.532C900.337 776.744 928.132 754.042 949.412 724.486L933.181 712.8ZM857.981 774.4L849.42 756.325C822.086 769.273 790.418 776 753.981 776V796V816C795.411 816 833.076 808.327 866.543 792.475L857.981 774.4ZM1136.07 774.4L1126.3 791.85C1126.39 791.9 1126.48 791.949 1126.57 791.998L1136.07 774.4ZM1078.47 712.8L1060.03 720.545C1060.09 720.694 1060.16 720.844 1060.22 720.992L1078.47 712.8ZM1069.67 620L1049.92 616.811C1049.91 616.875 1049.9 616.939 1049.89 617.004L1069.67 620ZM1086.47 516L1066.74 512.712C1066.74 512.745 1066.73 512.778 1066.72 512.811L1086.47 516ZM1124.87 424L1108.95 411.898C1108.93 411.915 1108.92 411.931 1108.91 411.948L1124.87 424ZM1201.67 362.4L1210.11 380.532C1210.15 380.511 1210.2 380.49 1210.24 380.469L1201.67 362.4ZM1404.87 362.4L1394.95 379.765C1395.08 379.844 1395.22 379.922 1395.37 379.998L1404.87 362.4ZM1461.67 424L1443.23 431.745C1443.29 431.894 1443.36 432.044 1443.42 432.192L1461.67 424ZM1470.47 516L1450.74 512.712C1450.73 512.755 1450.73 512.797 1450.72 512.84L1470.47 516ZM1457.67 596V616C1467.49 616 1475.87 608.862 1477.42 599.16L1457.67 596ZM1188.07 596V576C1178.29 576 1169.95 583.068 1168.34 592.712L1188.07 596ZM1184.07 620L1164.34 616.712C1164.33 616.794 1164.31 616.876 1164.3 616.959L1184.07 620ZM1194.47 683.2L1178.68 695.479C1178.76 695.575 1178.83 695.671 1178.91 695.767L1194.47 683.2ZM1297.67 694.4L1288.72 676.511C1288.62 676.563 1288.52 676.615 1288.42 676.668L1297.67 694.4ZM1324.87 668V648C1317.15 648 1310.13 652.437 1306.81 659.401L1324.87 668ZM1442.47 668L1461.06 675.361C1463.5 669.202 1462.73 662.236 1459.01 656.758C1455.29 651.279 1449.09 648 1442.47 648V668ZM1396.07 735.2L1409.63 749.896L1409.63 749.896L1396.07 735.2ZM1323.27 780L1316.09 761.333C1316.05 761.349 1316.01 761.365 1315.97 761.381L1323.27 780ZM1352.87 534.4L1333.12 531.24C1331.8 539.473 1335.73 547.659 1342.98 551.783C1350.22 555.906 1359.27 555.102 1365.67 549.764L1352.87 534.4ZM1356.07 514.4L1375.82 517.56C1375.82 517.54 1375.82 517.52 1375.83 517.499L1356.07 514.4ZM1347.27 452L1363.62 440.49L1363.62 440.49L1347.27 452ZM1230.47 452.8L1216.58 438.412L1216.58 438.412L1230.47 452.8ZM1200.87 516L1220.48 519.922C1220.54 519.649 1220.58 519.375 1220.63 519.099L1200.87 516ZM1198.47 528L1178.86 524.078C1177.68 529.987 1179.22 536.114 1183.06 540.755C1186.91 545.397 1192.64 548.058 1198.66 547.999L1198.47 528ZM1362.47 526.4L1375.27 541.764C1381.77 536.351 1384.16 527.437 1381.24 519.5C1378.32 511.563 1370.73 506.318 1362.27 506.401L1362.47 526.4ZM1234.47 796V776C1197.93 776 1168.6 769.24 1145.57 756.802L1136.07 774.4L1126.57 791.998C1156.87 808.36 1193.14 816 1234.47 816V796ZM1136.07 774.4L1145.84 756.95C1122.65 743.964 1106.57 726.557 1096.71 704.608L1078.47 712.8L1060.22 720.992C1073.84 751.31 1096.15 774.969 1126.3 791.85L1136.07 774.4ZM1078.47 712.8L1096.91 705.055C1087.43 682.482 1084.53 655.399 1089.44 622.996L1069.67 620L1049.89 617.004C1044.14 655.001 1047.11 689.784 1060.03 720.545L1078.47 712.8ZM1069.67 620L1089.41 623.189L1106.21 519.189L1086.47 516L1066.72 512.811L1049.92 616.811L1069.67 620ZM1086.47 516L1106.2 519.288C1111.58 486.979 1123.21 459.385 1140.83 436.052L1124.87 424L1108.91 411.948C1087.06 440.882 1073.09 474.621 1066.74 512.712L1086.47 516ZM1124.87 424L1140.79 436.102C1159.05 412.073 1182.07 393.586 1210.11 380.532L1201.67 362.4L1193.23 344.268C1159.41 360.014 1131.22 382.593 1108.95 411.898L1124.87 424ZM1201.67 362.4L1210.24 380.469C1238.73 366.95 1270.95 360 1307.27 360V340V320C1265.72 320 1227.54 327.984 1193.09 344.331L1201.67 362.4ZM1307.27 340V360C1343.72 360 1372.6 366.994 1394.95 379.765L1404.87 362.4L1414.79 345.035C1384.87 327.94 1348.69 320 1307.27 320V340ZM1404.87 362.4L1395.37 379.998C1418.22 392.341 1433.89 409.498 1443.23 431.745L1461.67 424L1480.11 416.255C1467.05 385.169 1444.85 361.259 1414.37 344.802L1404.87 362.4ZM1461.67 424L1443.42 432.192C1453.19 453.934 1456.12 480.443 1450.74 512.712L1470.47 516L1490.2 519.288C1496.55 481.157 1493.62 446.333 1479.91 415.808L1461.67 424ZM1470.47 516L1450.72 512.84L1437.92 592.84L1457.67 596L1477.42 599.16L1490.22 519.16L1470.47 516ZM1457.67 596V576H1188.07V596V616H1457.67V596ZM1188.07 596L1168.34 592.712L1164.34 616.712L1184.07 620L1203.8 623.288L1207.8 599.288L1188.07 596ZM1184.07 620L1164.3 616.959C1159.64 647.242 1162.65 674.872 1178.68 695.479L1194.47 683.2L1210.26 670.921C1203.88 662.728 1199.96 648.225 1203.84 623.041L1184.07 620ZM1194.47 683.2L1178.91 695.767C1195.49 716.292 1221.63 724 1251.27 724V704V684C1227.57 684 1215.85 677.841 1210.03 670.633L1194.47 683.2ZM1251.27 704V724C1272.08 724 1290.98 720.45 1306.92 712.132L1297.67 694.4L1288.42 676.668C1279.83 681.15 1267.79 684 1251.27 684V704ZM1297.67 694.4L1306.61 712.289C1322.76 704.215 1335.39 692.427 1342.93 676.599L1324.87 668L1306.81 659.401C1303.68 665.973 1298.18 671.785 1288.72 676.511L1297.67 694.4ZM1324.87 668V688H1442.47V668V648H1324.87V668ZM1442.47 668L1423.87 660.639C1414.88 683.368 1401.16 703.281 1382.5 720.504L1396.07 735.2L1409.63 749.896C1432.58 728.719 1449.79 703.832 1461.06 675.361L1442.47 668ZM1396.07 735.2L1382.5 720.504C1363.65 737.904 1341.58 751.529 1316.09 761.333L1323.27 780L1330.45 798.667C1360.42 787.138 1386.88 770.896 1409.63 749.896L1396.07 735.2ZM1323.27 780L1315.97 761.381C1291.31 771.052 1264.21 776 1234.47 776V796V816C1268.73 816 1300.83 810.282 1330.57 798.619L1323.27 780ZM1352.87 534.4L1372.62 537.56L1375.82 517.56L1356.07 514.4L1336.32 511.24L1333.12 531.24L1352.87 534.4ZM1356.07 514.4L1375.83 517.499C1380.46 487.966 1378.05 460.989 1363.62 440.49L1347.27 452L1330.91 463.51C1336.75 471.811 1340.21 486.434 1336.31 511.301L1356.07 514.4ZM1347.27 452L1363.62 440.49C1348.17 418.534 1322.19 410.4 1292.87 410.4V430.4V450.4C1315.81 450.4 1326.1 456.666 1330.91 463.51L1347.27 452ZM1292.87 430.4V410.4C1262.74 410.4 1236.55 419.132 1216.58 438.412L1230.47 452.8L1244.36 467.188C1255.33 456.601 1270.73 450.4 1292.87 450.4V430.4ZM1230.47 452.8L1216.58 438.412C1197.19 457.126 1185.86 482.616 1181.11 512.901L1200.87 516L1220.63 519.099C1224.41 494.984 1232.81 478.341 1244.36 467.188L1230.47 452.8ZM1200.87 516L1181.26 512.078L1178.86 524.078L1198.47 528L1218.08 531.922L1220.48 519.922L1200.87 516ZM1198.47 528L1198.66 547.999L1362.66 546.399L1362.47 526.4L1362.27 506.401L1198.27 508.001L1198.47 528ZM1362.47 526.4L1349.67 511.036L1340.07 519.036L1352.87 534.4L1365.67 549.764L1375.27 541.764L1362.47 526.4ZM1660.56 776.8L1651.76 794.761C1651.81 794.785 1651.85 794.808 1651.9 794.83L1660.56 776.8ZM1599.76 722.4L1582.71 732.86L1582.71 732.86L1599.76 722.4ZM1578.16 640V620C1567.11 620 1558.16 628.954 1558.16 640H1578.16ZM1618.16 640H1638.16C1638.16 628.954 1629.2 620 1618.16 620V640ZM1654.96 727.2L1641.65 742.13C1641.7 742.178 1641.76 742.225 1641.81 742.271L1654.96 727.2ZM1847.76 730.4L1860.98 745.407C1860.98 745.4 1860.99 745.393 1861 745.387L1847.76 730.4ZM1855.76 565.6L1839.89 577.776L1839.89 577.776L1855.76 565.6ZM1783.76 517.6L1789.47 498.434L1789.46 498.431L1783.76 517.6ZM1716.56 497.6L1710.71 516.727C1710.76 516.741 1710.8 516.755 1710.85 516.769L1716.56 497.6ZM1626.16 439.2L1610.3 451.394C1610.39 451.507 1610.48 451.62 1610.57 451.731L1626.16 439.2ZM1613.36 264L1596.28 253.588C1596.26 253.628 1596.23 253.669 1596.21 253.71L1613.36 264ZM1669.36 213.6L1660.73 195.557C1660.68 195.582 1660.62 195.607 1660.57 195.632L1669.36 213.6ZM1870.96 237.6L1856.95 251.876C1857.04 251.965 1857.13 252.053 1857.22 252.14L1870.96 237.6ZM1914.16 349.6V369.6C1925.2 369.6 1934.16 360.646 1934.16 349.6H1914.16ZM1874.16 349.6H1854.16C1854.16 360.646 1863.11 369.6 1874.16 369.6V349.6ZM1841.36 264L1855.32 249.684L1855.32 249.684L1841.36 264ZM1666.16 260L1652.99 244.948L1666.16 260ZM1658.96 413.6L1643 425.662C1643.05 425.726 1643.1 425.789 1643.15 425.851L1658.96 413.6ZM1726.16 459.2L1720.05 478.244C1720.11 478.265 1720.18 478.286 1720.24 478.306L1726.16 459.2ZM1793.36 480L1799.29 460.901C1799.28 460.899 1799.28 460.897 1799.27 460.894L1793.36 480ZM1886.96 542.4L1871.2 554.718C1871.25 554.777 1871.29 554.836 1871.34 554.894L1886.96 542.4ZM1901.36 724.8L1884.24 714.452C1884.22 714.491 1884.19 714.531 1884.17 714.57L1901.36 724.8ZM1843.76 777.6L1852.55 795.564C1852.65 795.514 1852.75 795.464 1852.85 795.412L1843.76 777.6ZM1754.16 796V776C1720.81 776 1692.67 770.031 1669.21 758.77L1660.56 776.8L1651.9 794.83C1681.77 809.169 1716.04 816 1754.16 816V796ZM1660.56 776.8L1669.35 758.839C1646.42 747.607 1629.1 731.987 1616.8 711.94L1599.76 722.4L1582.71 732.86C1599.21 759.746 1622.42 780.393 1651.76 794.761L1660.56 776.8ZM1599.76 722.4L1616.8 711.94C1604.6 692.05 1598.16 668.313 1598.16 640H1578.16H1558.16C1558.16 674.62 1566.11 705.817 1582.71 732.86L1599.76 722.4ZM1578.16 640V660H1618.16V640V620H1578.16V640ZM1618.16 640H1598.16C1598.16 681.31 1612.39 716.05 1641.65 742.13L1654.96 727.2L1668.26 712.27C1648.46 694.616 1638.16 671.224 1638.16 640H1618.16ZM1654.96 727.2L1641.81 742.271C1671.32 768.013 1709.43 780 1754.16 780V760V740C1716.75 740 1688.73 730.12 1668.1 712.129L1654.96 727.2ZM1754.16 760V780C1797.35 780 1833.84 769.315 1860.98 745.407L1847.76 730.4L1834.54 715.393C1816.87 730.951 1790.96 740 1754.16 740V760ZM1847.76 730.4L1861 745.387C1888.96 720.675 1902.16 686.808 1902.16 646.4H1882.16H1862.16C1862.16 677.458 1852.42 699.592 1834.51 715.413L1847.76 730.4ZM1882.16 646.4H1902.16C1902.16 611.392 1892.1 580.102 1871.62 553.424L1855.76 565.6L1839.89 577.776C1854.62 596.964 1862.16 619.541 1862.16 646.4H1882.16ZM1855.76 565.6L1871.62 553.424C1851.21 526.824 1823.49 508.581 1789.47 498.434L1783.76 517.6L1778.04 536.766C1804.82 544.752 1825.1 558.51 1839.89 577.776L1855.76 565.6ZM1783.76 517.6L1789.46 498.431L1722.26 478.431L1716.56 497.6L1710.85 516.769L1778.05 536.769L1783.76 517.6ZM1716.56 497.6L1722.4 478.473C1687.24 467.73 1660.73 450.291 1641.74 426.669L1626.16 439.2L1610.57 451.731C1635.31 482.509 1669.07 504.003 1710.71 516.727L1716.56 497.6ZM1626.16 439.2L1642.01 427.006C1623.59 403.063 1614.16 374.642 1614.16 340.8H1594.16H1574.16C1574.16 382.692 1586.05 419.871 1610.3 451.394L1626.16 439.2ZM1594.16 340.8H1614.16C1614.16 313.828 1619.91 291.944 1630.51 274.29L1613.36 264L1596.21 253.71C1581.2 278.723 1574.16 308.038 1574.16 340.8H1594.16ZM1613.36 264L1630.43 274.412C1641.69 255.948 1657.41 241.701 1678.14 231.568L1669.36 213.6L1660.57 195.632C1633.3 208.966 1611.69 228.319 1596.28 253.588L1613.36 264ZM1669.36 213.6L1677.99 231.643C1699.35 221.426 1724.83 216 1754.96 216V196V176C1720.02 176 1688.43 182.307 1660.73 195.557L1669.36 213.6ZM1754.96 196V216C1800.11 216 1833.27 228.644 1856.95 251.876L1870.96 237.6L1884.96 223.324C1852.11 191.089 1807.94 176 1754.96 176V196ZM1870.96 237.6L1857.22 252.14C1881.24 274.823 1894.16 306.457 1894.16 349.6H1914.16H1934.16C1934.16 297.809 1918.27 254.777 1884.69 223.06L1870.96 237.6ZM1914.16 349.6V329.6H1874.16V349.6V369.6H1914.16V349.6ZM1874.16 349.6H1894.16C1894.16 309.467 1881.7 275.421 1855.32 249.684L1841.36 264L1827.39 278.316C1844.74 295.245 1854.16 318.266 1854.16 349.6H1874.16ZM1841.36 264L1855.32 249.684C1829.03 224.037 1794.6 212 1754.16 212V232V252C1786.25 252 1809.95 261.297 1827.39 278.316L1841.36 264ZM1754.16 232V212C1713.54 212 1678.99 222.194 1652.99 244.948L1666.16 260L1679.33 275.052C1695.99 260.472 1720.1 252 1754.16 252V232ZM1666.16 260L1652.99 244.948C1626.57 268.059 1614.16 299.826 1614.16 337.6H1634.16H1654.16C1654.16 309.241 1663.07 289.274 1679.33 275.052L1666.16 260ZM1634.16 337.6H1614.16C1614.16 370.518 1623.71 400.139 1643 425.662L1658.96 413.6L1674.91 401.538C1661.14 383.328 1654.16 362.282 1654.16 337.6H1634.16ZM1658.96 413.6L1643.15 425.851C1662.4 450.694 1688.34 468.073 1720.05 478.244L1726.16 459.2L1732.26 440.156C1707.44 432.194 1688.58 419.173 1674.76 401.349L1658.96 413.6ZM1726.16 459.2L1720.24 478.306L1787.44 499.106L1793.36 480L1799.27 460.894L1732.07 440.094L1726.16 459.2ZM1793.36 480L1787.42 499.099C1823.45 510.296 1851.05 528.941 1871.2 554.718L1886.96 542.4L1902.71 530.082C1877 497.192 1842.2 474.237 1799.29 460.901L1793.36 480ZM1886.96 542.4L1871.34 554.894C1891.9 580.596 1902.16 610.032 1902.16 644H1922.16H1942.16C1942.16 601.168 1928.95 562.87 1902.57 529.906L1886.96 542.4ZM1922.16 644H1902.16C1902.16 671.858 1895.95 695.096 1884.24 714.452L1901.36 724.8L1918.47 735.148C1934.5 708.637 1942.16 678.009 1942.16 644H1922.16ZM1901.36 724.8L1884.17 714.57C1872.92 733.472 1856.65 748.56 1834.66 759.788L1843.76 777.6L1852.85 795.412C1881 781.04 1903.13 760.928 1918.54 735.03L1901.36 724.8ZM1843.76 777.6L1834.97 759.636C1813.22 770.278 1786.5 776 1754.16 776V796V816C1791.15 816 1824.16 809.455 1852.55 795.564L1843.76 777.6ZM2117.04 752.8L2102.38 766.399C2102.42 766.444 2102.46 766.488 2102.5 766.532L2117.04 752.8ZM2076.24 348V328C2065.2 328 2056.24 336.954 2056.24 348H2076.24ZM2116.24 348H2136.24C2136.24 336.954 2127.29 328 2116.24 328V348ZM2145.84 726.4L2130.84 739.621C2130.89 739.687 2130.95 739.753 2131.01 739.818L2145.84 726.4ZM2313.04 726.4L2298.21 712.982L2298.21 712.982L2313.04 726.4ZM2343.44 348V328C2332.4 328 2323.44 336.954 2323.44 348H2343.44ZM2383.44 348H2403.44C2403.44 336.954 2394.49 328 2383.44 328V348ZM2341.84 752L2327.31 738.26C2327.27 738.307 2327.22 738.354 2327.18 738.401L2341.84 752ZM2229.84 796V776C2186.09 776 2154.22 763.038 2131.58 739.068L2117.04 752.8L2102.5 766.532C2134.26 800.162 2177.6 816 2229.84 816V796ZM2117.04 752.8L2131.71 739.201C2108.78 714.477 2096.24 679.821 2096.24 632.8H2076.24H2056.24C2056.24 687.112 2070.9 732.456 2102.38 766.399L2117.04 752.8ZM2076.24 632.8H2096.24V348H2076.24H2056.24V632.8H2076.24ZM2076.24 348V368H2116.24V348V328H2076.24V348ZM2116.24 348H2096.24V632.8H2116.24H2136.24V348H2116.24ZM2116.24 632.8H2096.24C2096.24 675.993 2106.93 712.481 2130.84 739.621L2145.84 726.4L2160.85 713.179C2145.29 695.518 2136.24 669.607 2136.24 632.8H2116.24ZM2145.84 726.4L2131.01 739.818C2155.71 767.113 2189.22 780 2229.04 780V760V740C2198.47 740 2176.51 730.487 2160.67 712.982L2145.84 726.4ZM2229.04 760V780C2269.3 780 2303.12 767.179 2327.87 739.818L2313.04 726.4L2298.21 712.982C2282.43 730.421 2260.26 740 2229.04 740V760ZM2313.04 726.4L2327.87 739.818C2352.43 712.683 2363.44 676.119 2363.44 632.8H2343.44H2323.44C2323.44 669.481 2314.2 695.317 2298.21 712.982L2313.04 726.4ZM2343.44 632.8H2363.44V348H2343.44H2323.44V632.8H2343.44ZM2343.44 348V368H2383.44V348V328H2343.44V348ZM2383.44 348H2363.44V632.8H2383.44H2403.44V348H2383.44ZM2383.44 632.8H2363.44C2363.44 679.12 2350.73 713.486 2327.31 738.26L2341.84 752L2356.38 765.74C2388.42 731.847 2403.44 686.746 2403.44 632.8H2383.44ZM2341.84 752L2327.18 738.401C2304.47 762.893 2272.87 776 2229.84 776V796V816C2281.75 816 2324.82 799.774 2356.51 765.599L2341.84 752ZM2571.13 788H2551.13C2551.13 799.046 2560.09 808 2571.13 808V788ZM2571.13 348V328C2560.09 328 2551.13 336.954 2551.13 348H2571.13ZM2611.13 348H2631.13C2631.13 336.954 2622.18 328 2611.13 328V348ZM2611.13 424H2591.13C2591.13 435.046 2600.09 444 2611.13 444V424ZM2620.73 424L2639.32 431.373C2641.77 425.213 2641 418.244 2637.28 412.763C2633.55 407.282 2627.36 404 2620.73 404V424ZM2602.33 470.4L2582.33 470.126C2582.2 479.775 2588.98 488.143 2598.44 490.019C2607.91 491.894 2617.37 486.743 2620.92 477.773L2602.33 470.4ZM2638.33 376L2624.03 362.018L2624.03 362.018L2638.33 376ZM2843.13 383.2L2857.67 369.467L2857.67 369.467L2843.13 383.2ZM2883.93 524V544C2894.98 544 2903.93 535.046 2903.93 524H2883.93ZM2839.93 524H2819.93C2819.93 535.046 2828.89 544 2839.93 544V524ZM2809.53 408L2794.52 421.221C2794.64 421.347 2794.75 421.472 2794.86 421.595L2809.53 408ZM2641.53 408L2656.2 421.595C2656.25 421.537 2656.31 421.478 2656.36 421.418L2641.53 408ZM2611.13 788V808C2622.18 808 2631.13 799.046 2631.13 788H2611.13ZM2571.13 788H2591.13V348H2571.13H2551.13V788H2571.13ZM2571.13 348V368H2611.13V348V328H2571.13V348ZM2611.13 348H2591.13V424H2611.13H2631.13V348H2611.13ZM2611.13 424V444H2620.73V424V404H2611.13V424ZM2620.73 424L2602.14 416.627L2583.74 463.027L2602.33 470.4L2620.92 477.773L2639.32 431.373L2620.73 424ZM2602.33 470.4L2622.33 470.674C2622.8 435.991 2633.32 409.728 2652.63 389.982L2638.33 376L2624.03 362.018C2596.4 390.272 2582.92 426.943 2582.33 470.126L2602.33 470.4ZM2638.33 376L2652.63 389.982C2671.73 370.451 2697.45 360 2731.93 360V340V320C2688.55 320 2651.87 333.549 2624.03 362.018L2638.33 376ZM2731.93 340V360C2774.46 360 2805.86 372.869 2828.59 396.932L2843.13 383.2L2857.67 369.467C2826 335.931 2783.26 320 2731.93 320V340ZM2843.13 383.2L2828.59 396.932C2851.49 421.184 2863.93 454.76 2863.93 500H2883.93H2903.93C2903.93 447.106 2889.17 402.816 2857.67 369.467L2843.13 383.2ZM2883.93 500H2863.93V524H2883.93H2903.93V500H2883.93ZM2883.93 524V504H2839.93V524V544H2883.93V524ZM2839.93 524H2859.93V500H2839.93H2819.93V524H2839.93ZM2839.93 500H2859.93C2859.93 457.163 2848.88 421.035 2824.2 394.405L2809.53 408L2794.86 421.595C2810.71 438.698 2819.93 463.904 2819.93 500H2839.93ZM2809.53 408L2824.54 394.779C2800.2 367.155 2766.2 354.4 2725.53 354.4V374.4V394.4C2757.4 394.4 2779.39 404.045 2794.52 421.221L2809.53 408ZM2725.53 374.4V354.4C2685.28 354.4 2651.46 367.221 2626.7 394.582L2641.53 408L2656.36 421.418C2672.14 403.979 2694.32 394.4 2725.53 394.4V374.4ZM2641.53 408L2626.86 394.405C2602.18 421.035 2591.13 457.163 2591.13 500H2611.13H2631.13C2631.13 463.904 2640.35 438.698 2656.2 421.595L2641.53 408ZM2611.13 500H2591.13V788H2611.13H2631.13V500H2611.13ZM2611.13 788V768H2571.13V788V808H2611.13V788ZM3141.22 788H3121.22C3121.22 799.046 3130.17 808 3141.22 808V788ZM3141.22 428.8H3161.22C3161.22 417.754 3152.26 408.8 3141.22 408.8V428.8ZM3005.22 428.8H2985.22C2985.22 439.846 2994.17 448.8 3005.22 448.8V428.8ZM3005.22 392.8V372.8C2994.17 372.8 2985.22 381.754 2985.22 392.8H3005.22ZM3141.22 392.8V412.8C3152.26 412.8 3161.22 403.846 3161.22 392.8H3141.22ZM3168.42 230.4L3154.7 215.848C3154.63 215.914 3154.56 215.981 3154.49 216.048L3168.42 230.4ZM3367.62 204H3387.62C3387.62 192.954 3378.66 184 3367.62 184V204ZM3367.62 240V260C3378.66 260 3387.62 251.046 3387.62 240H3367.62ZM3181.22 392.8H3161.22C3161.22 403.846 3170.17 412.8 3181.22 412.8V392.8ZM3367.62 392.8H3387.62C3387.62 381.754 3378.66 372.8 3367.62 372.8V392.8ZM3367.62 428.8V448.8C3378.66 448.8 3387.62 439.846 3387.62 428.8H3367.62ZM3181.22 428.8V408.8C3170.17 408.8 3161.22 417.754 3161.22 428.8H3181.22ZM3181.22 788V808C3192.26 808 3201.22 799.046 3201.22 788H3181.22ZM3141.22 788H3161.22V428.8H3141.22H3121.22V788H3141.22ZM3141.22 428.8V408.8H3005.22V428.8V448.8H3141.22V428.8ZM3005.22 428.8H3025.22V392.8H3005.22H2985.22V428.8H3005.22ZM3005.22 392.8V412.8H3141.22V392.8V372.8H3005.22V392.8ZM3141.22 392.8H3161.22V304H3141.22H3121.22V392.8H3141.22ZM3141.22 304H3161.22C3161.22 276.532 3169 257.705 3182.35 244.752L3168.42 230.4L3154.49 216.048C3131.57 238.295 3121.22 268.535 3121.22 304H3141.22ZM3168.42 230.4L3182.14 244.952C3196.17 231.719 3216.36 224 3245.22 224V204V184C3209.01 184 3178 193.881 3154.7 215.848L3168.42 230.4ZM3245.22 204V224H3367.62V204V184H3245.22V204ZM3367.62 204H3347.62V240H3367.62H3387.62V204H3367.62ZM3367.62 240V220H3245.22V240V260H3367.62V240ZM3245.22 240V220C3221.2 220 3199.8 226.735 3183.88 242.658L3198.02 256.8L3212.16 270.942C3218.64 264.465 3228.7 260 3245.22 260V240ZM3198.02 256.8L3183.88 242.658C3167.95 258.58 3161.22 279.983 3161.22 304H3181.22H3201.22C3201.22 287.484 3205.68 277.419 3212.16 270.942L3198.02 256.8ZM3181.22 304H3161.22V392.8H3181.22H3201.22V304H3181.22ZM3181.22 392.8V412.8H3367.62V392.8V372.8H3181.22V392.8ZM3367.62 392.8H3347.62V428.8H3367.62H3387.62V392.8H3367.62ZM3367.62 428.8V408.8H3181.22V428.8V448.8H3367.62V428.8ZM3181.22 428.8H3161.22V788H3181.22H3201.22V428.8H3181.22ZM3181.22 788V768H3141.22V788V808H3181.22V788Z" fill="white" mask="url(#path-1-outside-1_342_171)"/>
</g>
<defs>
<clipPath id="clip0_342_171">
<rect width="3500" height="1000" fill="white"/>
</clipPath>
</defs>
</svg>
