<svg width="1000" height="1000" viewBox="0 0 1000 1000" fill="none" xmlns="http://www.w3.org/2000/svg">
<path d="M813.202 143C864.552 143 904.368 159.929 930.681 195.043L931.304 195.851C957.555 230.114 965.92 276.12 958.296 332.266C957.623 337.223 953.39 340.92 948.387 340.92H908.392C905.495 340.92 902.74 339.664 900.841 337.477C898.942 335.289 898.084 332.385 898.49 329.517C904.117 289.811 897.778 259.724 881.214 237.794C864.777 216.032 840.536 204.7 806.803 204.7C771.541 204.7 743.071 214.85 720.625 234.635C698.245 254.361 684.494 281.92 679.94 318.264C675.865 351.335 680.026 379.21 691.742 402.396C703.393 425.453 721.158 441.319 745.438 450.332L810.17 473.478L810.182 473.481C850.287 487.878 880.259 513.594 899.594 550.425C919.373 587.087 926.018 628.178 919.9 673.277C914.926 710.399 903.268 743.068 884.731 771.05C884.711 771.08 884.691 771.11 884.671 771.14C866.19 798.388 842.603 819.868 813.989 835.467C813.961 835.482 813.933 835.497 813.905 835.512C785.593 850.599 753.272 858 717.213 858C661.235 858 617.517 840.891 587.934 805.276C558.445 769.775 548.398 722.822 556.12 665.954C556.793 660.997 561.027 657.3 566.029 657.3H606.025C608.897 657.3 611.63 658.535 613.528 660.689C615.427 662.844 616.307 665.711 615.945 668.56C610.86 708.617 618.612 739.233 637.672 761.865C656.656 784.408 684.729 796.3 723.612 796.3C761.57 796.3 791.855 785.516 815.318 764.574C838.969 743.326 853.724 713.858 859.032 675.279L859.277 673.436C863.895 637.161 859.668 607.512 847.503 583.837C835.444 560.368 815.963 543.76 788.287 534.027C788.271 534.022 788.254 534.016 788.237 534.01L723.445 510.843L723.443 510.842C684.986 497.083 656.296 472.934 637.989 438.472C619.759 404.153 614.023 364.278 620.113 319.383L620.117 319.353C625.08 283.576 635.897 252.478 652.824 226.332C652.831 226.322 652.838 226.311 652.845 226.301C670.289 199.573 692.9 178.921 720.598 164.515C748.297 150.107 779.237 143 813.202 143ZM260.776 152.267C263.668 152.267 266.418 153.519 268.317 155.699C270.216 157.88 271.079 160.776 270.682 163.641L236.264 411.733H350.456L385.256 160.893L385.331 160.433C386.207 155.722 390.325 152.267 395.161 152.267H515.147C518.036 152.267 520.785 153.516 522.684 155.693C524.583 157.871 525.447 160.764 525.055 163.626L432.266 840.092C431.586 845.043 427.356 848.733 422.358 848.733H302.371C299.483 848.733 296.737 847.484 294.838 845.309C292.939 843.133 292.074 840.243 292.464 837.382L330.11 561.467H215.911L177.895 840.085C177.219 845.039 172.987 848.733 167.986 848.733H48C45.1109 848.733 42.3629 847.484 40.4639 845.307C38.5648 843.129 37.7001 840.236 38.0928 837.374L130.883 160.907L130.956 160.447C131.826 155.729 135.948 152.267 140.79 152.267H260.776Z" fill="black" stroke="white" stroke-width="20" stroke-linejoin="round"/>
</svg>
